<svg width="87" height="101" viewBox="0 0 87 101" fill="none" xmlns="http://www.w3.org/2000/svg">
<g clip-path="url(#clip0)">
<path d="M58.2151 50.8759C58.2151 42.905 51.8148 36.4434 43.9195 36.4434C36.0243 36.4434 29.624 42.905 29.624 50.8759C29.624 58.8468 36.0243 65.3084 43.9195 65.3084C51.8148 65.3084 58.2151 58.8468 58.2151 50.8759Z" fill="url(#paint0_radial)"/>
<path d="M39.073 46.8467C41.7497 44.2009 46.0894 44.2009 48.7661 46.8467L49.0883 47.1651C49.2221 47.2974 49.2221 47.5119 49.0883 47.6441L47.9863 48.7334C47.9194 48.7996 47.8109 48.7996 47.7439 48.7334L47.3006 48.2952C45.4333 46.4494 42.4058 46.4494 40.5385 48.2952L40.0637 48.7645C39.9968 48.8306 39.8883 48.8306 39.8214 48.7645L38.7194 47.6752C38.5856 47.5429 38.5856 47.3284 38.7194 47.1962L39.073 46.8467ZM51.0451 49.0994L52.0259 50.0688C52.1597 50.2011 52.1597 50.4156 52.0259 50.5479L47.6035 54.9193C47.4697 55.0516 47.2527 55.0516 47.1189 54.9193C47.1189 54.9193 47.1189 54.9193 47.1189 54.9193L43.9802 51.8168C43.9467 51.7837 43.8925 51.7837 43.859 51.8168C43.859 51.8168 43.859 51.8168 43.859 51.8168L40.7203 54.9193C40.5865 55.0516 40.3695 55.0516 40.2357 54.9193C40.2357 54.9193 40.2357 54.9193 40.2357 54.9193L35.8132 50.5479C35.6794 50.4156 35.6794 50.2011 35.8132 50.0688L36.794 49.0993C36.9278 48.967 37.1448 48.967 37.2786 49.0993L40.4174 52.2019C40.4509 52.235 40.5051 52.235 40.5386 52.2019C40.5386 52.2019 40.5386 52.2019 40.5386 52.2019L43.6772 49.0993C43.811 48.967 44.028 48.967 44.1618 49.0993C44.1618 49.0993 44.1618 49.0993 44.1618 49.0993L47.3006 52.2019C47.3341 52.235 47.3883 52.235 47.4218 52.2019L50.5605 49.0994C50.6943 48.9671 50.9113 48.9671 51.0451 49.0994Z" fill="white"/>
</g>
<path d="M54.8929 7.28844L44.5357 1.04102L34.1786 7.28844M54.8929 7.28844V20.3039L44.5357 26.0307M54.8929 7.28844L44.5357 13.0152M44.5357 26.0307L34.1786 20.3039V7.28844M44.5357 26.0307V13.0152M34.1786 7.28844L44.5357 13.0152" stroke="#3F3D56"/>
<path d="M54.8929 81.2167L44.5357 74.9692L34.1786 81.2167M54.8929 81.2167V94.2321L44.5357 99.9589M54.8929 81.2167L44.5357 86.9435M44.5357 99.9589L34.1786 94.2321V81.2167M44.5357 99.9589V86.9435M34.1786 81.2167L44.5357 86.9435" stroke="#3F3D56"/>
<path d="M85.9643 22.9071L75.6071 16.6597L65.25 22.9071M85.9643 22.9071V35.9226L75.6071 41.6494M85.9643 22.9071L75.6071 28.6339M75.6071 41.6494L65.25 35.9226V22.9071M75.6071 41.6494V28.6339M65.25 22.9071L75.6071 28.6339" stroke="#3F3D56"/>
<path d="M85.9643 60.392L75.6071 54.1445L65.25 60.392M85.9643 60.392V73.4074L75.6071 79.1342M85.9643 60.392L75.6071 66.1188M75.6071 79.1342L65.25 73.4074V60.392M75.6071 79.1342V66.1188M65.25 60.392L75.6071 66.1188" stroke="#3F3D56"/>
<path d="M21.75 22.9071L11.3928 16.6597L1.03571 22.9071M21.75 22.9071V35.9226L11.3928 41.6494M21.75 22.9071L11.3928 28.6339M11.3928 41.6494L1.03571 35.9226V22.9071M11.3928 41.6494V28.6339M1.03571 22.9071L11.3928 28.6339" stroke="#3F3D56"/>
<path d="M21.75 60.392L11.3928 54.1445L1.03571 60.392M21.75 60.392V73.4074L11.3928 79.1342M21.75 60.392L11.3928 66.1188M11.3928 79.1342L1.03571 73.4074V60.392M11.3928 79.1342V66.1188M1.03571 60.392L11.3928 66.1188" stroke="#3F3D56"/>
<defs>
<radialGradient id="paint0_radial" cx="0" cy="0" r="1" gradientUnits="userSpaceOnUse" gradientTransform="translate(29.624 50.8759) scale(28.5912 28.8651)">
<stop stop-color="#5D9DF6"/>
<stop offset="1" stop-color="#006FFF"/>
</radialGradient>
<clipPath id="clip0">
<rect width="28.5912" height="28.8651" fill="white" transform="translate(29.624 36.4434)"/>
</clipPath>
</defs>
</svg>
