<svg width="135" height="93" viewBox="0 0 135 93" fill="none" xmlns="http://www.w3.org/2000/svg">
<path d="M5.22311 47.0647C8.0371 47.0647 10.3183 44.7773 10.3183 41.9557C10.3183 39.1341 8.0371 36.8467 5.22311 36.8467C2.40912 36.8467 0.12793 39.1341 0.12793 41.9557C0.12793 44.7773 2.40912 47.0647 5.22311 47.0647Z" fill="#3B99FC"/>
<path d="M51.2342 12.6951C54.0482 12.6951 56.3294 10.4077 56.3294 7.58607C56.3294 4.76444 54.0482 2.47705 51.2342 2.47705C48.4202 2.47705 46.139 4.76444 46.139 7.58607C46.139 10.4077 48.4202 12.6951 51.2342 12.6951Z" fill="#3B99FC"/>
<path d="M28.2287 92.8911C36.8413 92.8911 43.8231 85.8903 43.8231 77.2544C43.8231 68.6185 36.8413 61.6177 28.2287 61.6177C19.6162 61.6177 12.6344 68.6185 12.6344 77.2544C12.6344 85.8903 19.6162 92.8911 28.2287 92.8911Z" fill="#3B99FC"/>
<path d="M52.9722 9.34373L61.7574 19.4193L97.1821 5.41357L97.3083 5.73397L61.9975 19.6946L90.4426 52.3175L120.188 40.5574L120.314 40.8778L90.6827 52.5929L116.496 82.197L116.237 82.4237L90.3434 52.727L30.5312 76.3748M52.7136 9.57049L61.4181 19.5534L7.39966 40.9105M7.52562 41.2309L61.6582 19.8288L90.1033 52.4517L30.4052 76.0542" stroke="black"/>
<path d="M134.919 35.144H105.583V46.4458H134.919V35.144Z" fill="#3F3D56"/>
<path d="M129.746 38.1631H110.755V39.092H129.746V38.1631Z" fill="#F2F2F2"/>
<path d="M129.746 40.3301H110.755V41.259H129.746V40.3301Z" fill="#F2F2F2"/>
<path d="M129.746 42.4976H110.755V43.4265H129.746V42.4976Z" fill="#F2F2F2"/>
<path d="M111.913 0H82.5773V11.3018H111.913V0Z" fill="#3F3D56"/>
<path d="M106.741 3.01904H87.7496V3.94795H106.741V3.01904Z" fill="#F2F2F2"/>
<path d="M106.741 5.18652H87.7496V6.11543H106.741V5.18652Z" fill="#F2F2F2"/>
<path d="M106.741 7.35352H87.7496V8.28243H106.741V7.35352Z" fill="#F2F2F2"/>
<path d="M131.059 76.6353H101.723V87.937H131.059V76.6353Z" fill="#3F3D56"/>
<path d="M125.886 79.6543H106.895V80.5832H125.886V79.6543Z" fill="#F2F2F2"/>
<path d="M125.886 81.8218H106.895V82.7507H125.886V81.8218Z" fill="#F2F2F2"/>
<path d="M125.886 83.9893H106.895V84.9182H125.886V83.9893Z" fill="#F2F2F2"/>
</svg>
