<svg width="137" height="106" viewBox="0 0 137 106" fill="none" xmlns="http://www.w3.org/2000/svg">
<g clip-path="url(#clip0)">
<path d="M116.749 0.0654297H45.4382C44.7715 0.0663691 44.1323 0.330356 43.6608 0.799514C43.1893 1.26867 42.924 1.90472 42.9231 2.56821V29.9515C42.924 30.615 43.1893 31.2511 43.6608 31.7202C44.1323 32.1894 44.7715 32.4534 45.4382 32.4543H116.749C117.416 32.4534 118.055 32.1894 118.527 31.7202C118.998 31.2511 119.263 30.615 119.264 29.9515V2.56821C119.263 1.90472 118.998 1.26867 118.527 0.799514C118.055 0.330356 117.416 0.0663687 116.749 0.0654297ZM118.968 29.9515C118.968 30.537 118.734 31.0983 118.318 31.5123C117.902 31.9263 117.338 32.1592 116.749 32.1599H45.4382C44.8499 32.1592 44.2858 31.9263 43.8698 31.5123C43.4537 31.0983 43.2197 30.537 43.219 29.9515V2.56821C43.2197 1.98274 43.4537 1.42146 43.8698 1.00747C44.2858 0.593478 44.8499 0.360586 45.4382 0.359874H116.749C117.338 0.360586 117.902 0.593478 118.318 1.00747C118.734 1.42146 118.968 1.98274 118.968 2.56821V29.9515Z" fill="#3F3D56"/>
<path d="M58.3857 24.799C56.6885 24.799 55.0295 24.2982 53.6183 23.3599C52.2072 22.4216 51.1074 21.0881 50.4579 19.5278C49.8084 17.9675 49.6385 16.2506 49.9696 14.5942C50.3007 12.9378 51.1179 11.4164 52.318 10.2222C53.5181 9.02799 55.0471 8.21474 56.7116 7.88527C58.3762 7.55579 60.1015 7.72489 61.6695 8.37118C63.2375 9.01747 64.5776 10.1119 65.5205 11.5161C66.4634 12.9203 66.9667 14.5713 66.9667 16.2601C66.9641 18.524 66.0592 20.6944 64.4505 22.2952C62.8418 23.896 60.6607 24.7964 58.3857 24.799ZM58.3857 8.01564C56.747 8.01564 55.1452 8.49917 53.7827 9.40508C52.4203 10.311 51.3583 11.5986 50.7313 13.1051C50.1042 14.6115 49.9401 16.2692 50.2598 17.8685C50.5795 19.4678 51.3685 20.9368 52.5272 22.0898C53.6859 23.2428 55.1622 24.028 56.7693 24.3461C58.3765 24.6642 60.0423 24.501 61.5562 23.877C63.0702 23.253 64.3641 22.1962 65.2745 20.8405C66.1849 19.4847 66.6708 17.8907 66.6708 16.2601C66.6683 14.0743 65.7946 11.9787 64.2414 10.4331C62.6882 8.88752 60.5823 8.01812 58.3857 8.01564Z" fill="#3F3D56"/>
<path d="M110.385 10.813H76.2093C75.7316 10.8133 75.2726 10.9975 74.9284 11.3271C74.5842 11.6567 74.3816 12.1061 74.3629 12.5811C74.3605 12.6051 74.3595 12.6292 74.36 12.6533C74.3607 13.1411 74.5557 13.6088 74.9024 13.9538C75.2491 14.2988 75.7191 14.4929 76.2093 14.4935H110.385C110.876 14.4935 111.346 14.2997 111.693 13.9545C112.04 13.6094 112.235 13.1413 112.235 12.6533C112.235 12.1652 112.04 11.6971 111.693 11.352C111.346 11.0069 110.876 10.813 110.385 10.813Z" fill="#3B99FC"/>
<path d="M110.385 18.0264H76.2093C75.7316 18.0266 75.2726 18.2109 74.9284 18.5405C74.5842 18.8701 74.3816 19.3195 74.3629 19.7945C74.3605 19.8185 74.3595 19.8426 74.36 19.8666C74.3607 20.3545 74.5557 20.8222 74.9024 21.1672C75.2491 21.5121 75.7191 21.7062 76.2093 21.7069H110.385C110.876 21.7069 111.346 21.513 111.693 21.1679C112.04 20.8228 112.235 20.3547 112.235 19.8666C112.235 19.3786 112.04 18.9105 111.693 18.5654C111.346 18.2203 110.876 18.0264 110.385 18.0264Z" fill="#3B99FC"/>
<path d="M57.4284 19.9908C57.1889 19.9913 56.9559 19.9142 56.7643 19.7713L56.7524 19.7624L54.2515 17.8571C54.1357 17.7687 54.0385 17.6586 53.9654 17.5329C53.8924 17.4072 53.8449 17.2684 53.8258 17.1245C53.8066 16.9806 53.8162 16.8343 53.8538 16.694C53.8915 16.5537 53.9565 16.4222 54.0453 16.307C54.134 16.1917 54.2447 16.095 54.371 16.0223C54.4973 15.9496 54.6368 15.9024 54.7815 15.8833C54.9261 15.8643 55.0731 15.8738 55.2141 15.9112C55.355 15.9487 55.4872 16.0135 55.603 16.1018L57.2229 17.3378L61.051 12.3699C61.1398 12.2547 61.2505 12.158 61.3769 12.0853C61.5032 12.0127 61.6427 11.9655 61.7873 11.9465C61.932 11.9275 62.079 11.9371 62.22 11.9746C62.3609 12.0121 62.493 12.0769 62.6088 12.1653L62.585 12.1974L62.6094 12.1657C62.843 12.3444 62.9958 12.6079 63.0344 12.8985C63.0729 13.1891 62.9941 13.4831 62.8151 13.7159L58.3123 19.5593C58.2082 19.694 58.0743 19.803 57.921 19.8778C57.7677 19.9526 57.5991 19.9913 57.4284 19.9908Z" fill="#3B99FC"/>
<path d="M73.8442 36.8711H2.53319C1.86642 36.872 1.22724 37.136 0.755771 37.6052C0.284299 38.0743 0.0190104 38.7104 0.0180664 39.3739V66.7572C0.01901 67.4207 0.284299 68.0567 0.755771 68.5259C1.22724 68.9951 1.86642 69.259 2.53319 69.26H73.8442C74.511 69.259 75.1501 68.9951 75.6216 68.5259C76.0931 68.0567 76.3584 67.4207 76.3593 66.7572V39.3739C76.3584 38.7104 76.0931 38.0743 75.6216 37.6052C75.1501 37.136 74.511 36.872 73.8442 36.8711ZM76.0634 66.7572C76.0627 67.3427 75.8287 67.904 75.4126 68.3179C74.9966 68.7319 74.4326 68.9648 73.8442 68.9655H2.53319C1.94483 68.9648 1.38078 68.7319 0.964749 68.3179C0.548719 67.904 0.314678 67.3427 0.313963 66.7572V39.3739C0.314678 38.7884 0.548719 38.2271 0.964749 37.8131C1.38078 37.3991 1.94483 37.1663 2.53319 37.1655H73.8442C74.4326 37.1663 74.9966 37.3991 75.4126 37.8131C75.8287 38.2271 76.0627 38.7884 76.0634 39.3739V66.7572Z" fill="#3F3D56"/>
<path d="M15.4807 61.6042C13.7835 61.6042 12.1244 61.1034 10.7133 60.1651C9.30217 59.2268 8.20233 57.8932 7.55285 56.333C6.90338 54.7727 6.73344 53.0558 7.06454 51.3994C7.39564 49.743 8.2129 48.2215 9.41298 47.0274C10.6131 45.8332 12.142 45.0199 13.8066 44.6904C15.4711 44.361 17.1965 44.5301 18.7645 45.1764C20.3324 45.8226 21.6726 46.9171 22.6155 48.3213C23.5584 49.7255 24.0617 51.3764 24.0617 53.0653C24.0591 55.3291 23.1542 57.4996 21.5455 59.1004C19.9368 60.7012 17.7557 61.6016 15.4807 61.6042ZM15.4807 44.8208C13.842 44.8208 12.2402 45.3043 10.8777 46.2103C9.51523 47.1162 8.45331 48.4038 7.82623 49.9103C7.19915 51.4167 7.03507 53.0744 7.35475 54.6737C7.67443 56.2729 8.46352 57.742 9.62221 58.895C10.7809 60.048 12.2572 60.8332 13.8643 61.1513C15.4715 61.4694 17.1373 61.3062 18.6512 60.6821C20.1651 60.0581 21.4591 59.0014 22.3695 57.6456C23.2798 56.2898 23.7658 54.6959 23.7658 53.0653C23.7633 50.8795 22.8896 48.7839 21.3364 47.2383C19.7831 45.6927 17.6772 44.8233 15.4807 44.8208Z" fill="#3F3D56"/>
<path d="M67.4803 47.6182H33.3043C32.8266 47.6184 32.3676 47.8027 32.0234 48.1323C31.6792 48.4619 31.4765 48.9113 31.4579 49.3863C31.4555 49.4103 31.4545 49.4344 31.455 49.4584C31.4556 49.9463 31.6507 50.414 31.9974 50.759C32.3441 51.1039 32.814 51.298 33.3043 51.2987H67.4803C67.9708 51.2987 68.4412 51.1048 68.788 50.7597C69.1348 50.4146 69.3297 49.9465 69.3297 49.4584C69.3297 48.9704 69.1348 48.5023 68.788 48.1572C68.4412 47.812 67.9708 47.6182 67.4803 47.6182Z" fill="#3B99FC"/>
<path d="M67.4803 54.8325H33.3043C32.8266 54.8328 32.3676 55.017 32.0234 55.3467C31.6792 55.6763 31.4765 56.1257 31.4579 56.6007C31.4555 56.6246 31.4545 56.6487 31.455 56.6728C31.4556 57.1607 31.6507 57.6283 31.9974 57.9733C32.3441 58.3183 32.814 58.5124 33.3043 58.5131H67.4803C67.9708 58.5131 68.4412 58.3192 68.788 57.9741C69.1348 57.6289 69.3297 57.1609 69.3297 56.6728C69.3297 56.1847 69.1348 55.7166 68.788 55.3715C68.4412 55.0264 67.9708 54.8325 67.4803 54.8325Z" fill="#3B99FC"/>
<path d="M14.5233 56.7965C14.2839 56.797 14.0508 56.7199 13.8593 56.577L13.8474 56.5681L11.3465 54.6627C11.2306 54.5744 11.1334 54.4643 11.0604 54.3386C10.9873 54.2129 10.9399 54.0741 10.9207 53.9302C10.9016 53.7862 10.9111 53.6399 10.9488 53.4997C10.9865 53.3594 11.0515 53.2279 11.1403 53.1126C11.229 52.9974 11.3397 52.9006 11.466 52.828C11.5923 52.7553 11.7318 52.708 11.8764 52.689C12.0211 52.6699 12.1681 52.6794 12.309 52.7169C12.45 52.7544 12.5822 52.8191 12.698 52.9074L14.3179 54.1435L18.146 49.1756C18.2348 49.0603 18.3455 48.9636 18.4718 48.891C18.5982 48.8184 18.7377 48.7712 18.8823 48.7522C19.027 48.7332 19.174 48.7427 19.3149 48.7803C19.4559 48.8178 19.588 48.8826 19.7038 48.9709L19.68 49.0031L19.7044 48.9714C19.938 49.15 20.0908 49.4136 20.1294 49.7042C20.1679 49.9948 20.089 50.2888 19.9101 50.5216L15.4073 56.365C15.3032 56.4997 15.1693 56.6086 15.016 56.6835C14.8627 56.7583 14.6941 56.797 14.5233 56.7965Z" fill="#3B99FC"/>
<path d="M134.485 73.6113H63.1738C62.507 73.6123 61.8679 73.8763 61.3964 74.3454C60.9249 74.8146 60.6596 75.4506 60.6587 76.1141V103.497C60.6596 104.161 60.9249 104.797 61.3964 105.266C61.8679 105.735 62.507 105.999 63.1738 106H134.485C135.152 105.999 135.791 105.735 136.262 105.266C136.734 104.797 136.999 104.161 137 103.497V76.1141C136.999 75.4506 136.734 74.8146 136.262 74.3454C135.791 73.8763 135.152 73.6123 134.485 73.6113ZM136.704 103.497C136.703 104.083 136.469 104.644 136.053 105.058C135.637 105.472 135.073 105.705 134.485 105.706H63.1738C62.5855 105.705 62.0214 105.472 61.6054 105.058C61.1893 104.644 60.9553 104.083 60.9546 103.497V76.1141C60.9553 75.5286 61.1893 74.9674 61.6054 74.5534C62.0214 74.1394 62.5855 73.9065 63.1738 73.9058H134.485C135.073 73.9065 135.637 74.1394 136.053 74.5534C136.469 74.9674 136.703 75.5286 136.704 76.1141V103.497Z" fill="#3F3D56"/>
<path d="M76.1213 98.3449C74.4241 98.3449 72.7651 97.8441 71.3539 96.9058C69.9428 95.9675 68.843 94.6339 68.1935 93.0737C67.544 91.5134 67.3741 89.7965 67.7052 88.1401C68.0363 86.4837 68.8535 84.9623 70.0536 83.7681C71.2537 82.5739 72.7827 81.7606 74.4472 81.4312C76.1118 81.1017 77.8371 81.2708 79.4051 81.9171C80.9731 82.5634 82.3132 83.6578 83.2561 85.062C84.199 86.4662 84.7023 88.1171 84.7023 89.806C84.6997 92.0698 83.7948 94.2403 82.1861 95.841C80.5774 97.4418 78.3963 98.3423 76.1213 98.3449ZM76.1213 81.5615C74.4826 81.5615 72.8808 82.0451 71.5183 82.951C70.1559 83.8569 69.0939 85.1445 68.4669 86.651C67.8398 88.1574 67.6757 89.8151 67.9954 91.4144C68.3151 93.0136 69.1041 94.4827 70.2628 95.6357C71.4215 96.7887 72.8978 97.5739 74.5049 97.892C76.1121 98.2101 77.7779 98.0468 79.2918 97.4228C80.8058 96.7988 82.0997 95.7421 83.0101 94.3863C83.9205 93.0305 84.4064 91.4366 84.4064 89.806C84.4039 87.6202 83.5302 85.5246 81.977 83.979C80.4238 82.4334 78.3179 81.564 76.1213 81.5615Z" fill="#3F3D56"/>
<path d="M128.121 84.3584H93.9449C93.4672 84.3587 93.0082 84.5429 92.664 84.8725C92.3198 85.2022 92.1171 85.6515 92.0985 86.1265C92.0961 86.1505 92.0951 86.1746 92.0956 86.1987C92.0963 86.6865 92.2913 87.1542 92.638 87.4992C92.9847 87.8442 93.4547 88.0383 93.9449 88.039H128.121C128.611 88.039 129.082 87.8451 129.429 87.5C129.775 87.1548 129.97 86.6868 129.97 86.1987C129.97 85.7106 129.775 85.2425 129.429 84.8974C129.082 84.5523 128.611 84.3584 128.121 84.3584Z" fill="#3B99FC"/>
<path d="M128.121 91.5723H93.9449C93.4672 91.5725 93.0082 91.7568 92.664 92.0864C92.3198 92.416 92.1171 92.8654 92.0985 93.3404C92.0961 93.3644 92.0951 93.3885 92.0956 93.4125C92.0963 93.9004 92.2913 94.3681 92.638 94.7131C92.9847 95.058 93.4547 95.2521 93.9449 95.2528H128.121C128.611 95.2528 129.082 95.0589 129.429 94.7138C129.775 94.3687 129.97 93.9006 129.97 93.4125C129.97 92.9245 129.775 92.4564 129.429 92.1113C129.082 91.7662 128.611 91.5723 128.121 91.5723Z" fill="#3B99FC"/>
<path d="M75.164 93.5362C74.9245 93.5367 74.6914 93.4596 74.4999 93.3167L74.488 93.3079L71.9871 91.4025C71.8713 91.3142 71.7741 91.204 71.701 91.0783C71.628 90.9526 71.5805 90.8139 71.5614 90.6699C71.5422 90.526 71.5517 90.3797 71.5894 90.2394C71.6271 90.0991 71.6921 89.9676 71.7809 89.8524C71.8696 89.7371 71.9803 89.6404 72.1066 89.5677C72.2329 89.495 72.3724 89.4478 72.5171 89.4287C72.6617 89.4097 72.8087 89.4192 72.9497 89.4566C73.0906 89.4941 73.2228 89.5589 73.3386 89.6472L74.9585 90.8832L78.7866 85.9153C78.8754 85.8001 78.9861 85.7034 79.1125 85.6307C79.2388 85.5581 79.3783 85.5109 79.5229 85.4919C79.6676 85.4729 79.8146 85.4825 79.9555 85.52C80.0965 85.5575 80.2286 85.6223 80.3444 85.7107L80.3206 85.7428L80.345 85.7111C80.5786 85.8898 80.7314 86.1533 80.77 86.4439C80.8085 86.7345 80.7297 87.0285 80.5507 87.2613L76.0479 93.1048C75.9438 93.2394 75.8099 93.3484 75.6566 93.4232C75.5033 93.498 75.3347 93.5367 75.164 93.5362Z" fill="#3B99FC"/>
</g>
<defs>
<clipPath id="clip0">
<rect width="137" height="106" fill="white"/>
</clipPath>
</defs>
</svg>
