<svg xmlns="http://www.w3.org/2000/svg" width="512" height="512" viewBox="0 0 512 512" fill="none"><path fill-rule="evenodd" clip-rule="evenodd" d="M363.388 231.044C354.28 221.936 354.28 207.169 363.388 198.06C372.496 188.952 387.263 188.952 396.372 198.06C405.48 207.169 405.48 221.936 396.372 231.044C387.263 240.152 372.496 240.152 363.388 231.044ZM285.052 309.38C278.221 302.549 278.221 291.473 285.052 284.642C291.883 277.811 302.959 277.811 309.79 284.642C316.621 291.473 316.621 302.549 309.79 309.38C302.959 316.211 291.883 316.211 285.052 309.38ZM408.74 268.15C401.909 261.319 401.909 250.244 408.74 243.413C415.571 236.582 426.647 236.582 433.478 243.413C440.309 250.244 440.309 261.319 433.478 268.15C426.647 274.982 415.571 274.982 408.74 268.15ZM367.511 309.38C360.68 302.549 360.68 291.473 367.511 284.642C374.342 277.811 385.417 277.811 392.249 284.642C399.08 291.473 399.08 302.549 392.249 309.38C385.417 316.211 374.342 316.211 367.511 309.38ZM454.093 305.257C449.539 300.703 449.539 293.319 454.093 288.765C458.647 284.211 466.03 284.211 470.584 288.765C475.139 293.319 475.139 300.703 470.584 305.257C466.03 309.811 458.647 309.811 454.093 305.257ZM412.863 346.486C408.309 341.932 408.309 334.549 412.863 329.995C417.417 325.44 424.801 325.44 429.355 329.995C433.909 334.549 433.909 341.932 429.355 346.486C424.801 351.04 417.417 351.04 412.863 346.486ZM322.159 272.273C313.05 263.165 313.05 248.398 322.159 239.29C331.267 230.182 346.034 230.182 355.142 239.29C364.25 248.398 364.25 263.165 355.142 272.273C346.034 281.382 331.267 281.382 322.159 272.273ZM322.159 189.815C313.05 180.706 313.05 165.939 322.159 156.831C331.267 147.723 346.034 147.723 355.142 156.831C364.25 165.939 364.25 180.706 355.142 189.815C346.034 198.923 331.267 198.923 322.159 189.815ZM280.929 231.044C271.821 221.936 271.821 207.169 280.929 198.06C290.037 188.952 304.805 188.952 313.913 198.06C323.021 207.169 323.021 221.936 313.913 231.044C304.805 240.152 290.037 240.152 280.929 231.044ZM198.087 231.044C188.979 221.936 188.979 207.169 198.087 198.06C207.195 188.952 221.963 188.952 231.071 198.06C240.179 207.169 240.179 221.936 231.071 231.044C221.963 240.152 207.195 240.152 198.087 231.044ZM119.751 309.38C112.92 302.549 112.92 291.473 119.751 284.642C126.583 277.811 137.658 277.811 144.489 284.642C151.32 291.473 151.32 302.549 144.489 309.38C137.658 316.211 126.583 316.211 119.751 309.38ZM243.44 268.15C236.608 261.319 236.608 250.244 243.44 243.413C250.271 236.582 261.346 236.582 268.177 243.413C275.008 250.244 275.008 261.319 268.177 268.15C261.346 274.982 250.271 274.982 243.44 268.15ZM202.21 309.38C195.379 302.549 195.379 291.473 202.21 284.642C209.041 277.811 220.117 277.811 226.948 284.642C233.779 291.473 233.779 302.549 226.948 309.38C220.117 316.211 209.041 316.211 202.21 309.38ZM41.4156 305.257C36.8615 300.703 36.8615 293.319 41.4156 288.765C45.9696 284.211 53.3532 284.211 57.9073 288.765C62.4614 293.319 62.4614 300.703 57.9073 305.257C53.3532 309.811 45.9696 309.811 41.4156 305.257ZM82.6449 346.486C78.0909 341.932 78.0909 334.549 82.6449 329.995C87.199 325.44 94.5826 325.44 99.1367 329.995C103.691 334.549 103.691 341.932 99.1367 346.486C94.5826 351.04 87.199 351.04 82.6449 346.486ZM247.562 346.486C243.008 341.932 243.008 334.549 247.562 329.995C252.117 325.44 259.5 325.44 264.054 329.995C268.608 334.549 268.608 341.932 264.054 346.486C259.5 351.04 252.117 351.04 247.562 346.486ZM78.522 268.15C71.6909 261.319 71.6909 250.244 78.522 243.413C85.3531 236.582 96.4285 236.582 103.26 243.413C110.091 250.244 110.091 261.319 103.26 268.15C96.4285 274.982 85.3531 274.982 78.522 268.15ZM156.858 272.273C147.75 263.165 147.75 248.398 156.858 239.29C165.966 230.182 180.733 230.182 189.841 239.29C198.949 248.398 198.949 263.165 189.841 272.273C180.733 281.382 165.966 281.382 156.858 272.273ZM156.858 189.815C147.75 180.706 147.75 165.939 156.858 156.831C165.966 147.723 180.733 147.723 189.841 156.831C198.949 165.939 198.949 180.706 189.841 189.815C180.733 198.923 165.966 198.923 156.858 189.815ZM115.628 231.044C106.52 221.936 106.52 207.169 115.628 198.06C124.737 188.952 139.504 188.952 148.612 198.06C157.72 207.169 157.72 221.936 148.612 231.044C139.504 240.152 124.737 240.152 115.628 231.044Z" fill="black"></path></svg>