<svg width="149" height="93" viewBox="0 0 149 93" fill="none" xmlns="http://www.w3.org/2000/svg">
<path d="M28.8631 41.6631C28.452 41.6631 28.0577 41.8247 27.767 42.1124C27.4763 42.4001 27.313 42.7903 27.313 43.1971C27.313 43.604 27.4763 43.9941 27.767 44.2818C28.0577 44.5695 28.452 44.7311 28.8631 44.7311H48.3474V44.0619C48.3473 43.5863 48.4666 43.1182 48.6945 42.6995C48.9225 42.2808 49.2519 41.9247 49.6533 41.6631H28.8631Z" fill="#E6E6E6"/>
<path d="M46.5928 38.2116H40.005C39.5939 38.2116 39.1997 38.05 38.909 37.7623C38.6183 37.4746 38.455 37.0844 38.455 36.6776C38.455 36.2707 38.6183 35.8805 38.909 35.5929C39.1997 35.3052 39.5939 35.1436 40.005 35.1436H46.5928C47.0039 35.1436 47.3982 35.3052 47.6888 35.5929C47.9795 35.8805 48.1429 36.2707 48.1429 36.6776C48.1429 37.0844 47.9795 37.4746 47.6888 37.7623C47.3982 38.05 47.0039 38.2116 46.5928 38.2116Z" fill="#E6E6E6"/>
<path d="M31.8178 27.2814H6.24172C5.83062 27.2814 5.43635 27.1198 5.14566 26.8321C4.85496 26.5444 4.69165 26.1543 4.69165 25.7474C4.69165 25.3406 4.85496 24.9504 5.14566 24.6627C5.43635 24.375 5.83062 24.2134 6.24172 24.2134H31.8178C32.2289 24.2134 32.6232 24.375 32.9139 24.6627C33.2045 24.9504 33.3679 25.3406 33.3679 25.7474C33.3679 26.1543 33.2045 26.5444 32.9139 26.8321C32.6232 27.1198 32.2289 27.2814 31.8178 27.2814Z" fill="#E6E6E6"/>
<path d="M20.6766 20.7624H17.3827C16.9716 20.7624 16.5773 20.6008 16.2866 20.3131C15.996 20.0254 15.8326 19.6352 15.8326 19.2284C15.8326 18.8215 15.996 18.4313 16.2866 18.1436C16.5773 17.856 16.9716 17.6943 17.3827 17.6943H20.6766C21.0877 17.6943 21.482 17.856 21.7727 18.1436C22.0634 18.4313 22.2267 18.8215 22.2267 19.2284C22.2267 19.6352 22.0634 20.0254 21.7727 20.3131C21.482 20.6008 21.0877 20.7624 20.6766 20.7624Z" fill="#E6E6E6"/>
<path d="M48.1528 72.5151H24.0419C23.1686 72.5141 22.3314 72.1704 21.7139 71.5593C21.0964 70.9481 20.749 70.1196 20.748 69.2553V31.5108C20.749 30.6465 21.0964 29.8179 21.7139 29.2068C22.3314 28.5957 23.1686 28.2519 24.0419 28.251H62.556C63.4292 28.2519 64.2665 28.5957 64.884 29.2068C65.5015 29.8179 65.8489 30.6465 65.8498 31.5108V40.8659H65.4623V31.5108C65.4615 30.7482 65.155 30.0171 64.6101 29.4779C64.0652 28.9387 63.3265 28.6353 62.556 28.6345H24.0419C23.2714 28.6353 22.5326 28.9387 21.9878 29.4779C21.4429 30.0171 21.1364 30.7482 21.1356 31.5108V69.2553C21.1364 70.0179 21.4429 70.749 21.9878 71.2882C22.5326 71.8274 23.2714 72.1307 24.0419 72.1316H48.1528V72.5151Z" fill="#3F3D56"/>
<path d="M20.9418 49.9197H3.36615C2.49286 49.9188 1.65562 49.575 1.03811 48.9639C0.420601 48.3528 0.0732487 47.5242 0.0722656 46.6599V15.9683C0.0732487 15.104 0.420601 14.2755 1.03811 13.6643C1.65562 13.0532 2.49286 12.7095 3.36615 12.7085H34.6932C35.5665 12.7095 36.4038 13.0532 37.0213 13.6643C37.6388 14.2755 37.9861 15.104 37.9871 15.9683V28.4427H37.5996V15.9683C37.5987 15.2057 37.2923 14.4746 36.7474 13.9354C36.2025 13.3962 35.4638 13.0929 34.6932 13.092H3.36615C2.5956 13.0929 1.85686 13.3962 1.312 13.9354C0.767141 14.4746 0.460654 15.2057 0.459782 15.9683V46.6599C0.460654 47.4225 0.767141 48.1536 1.312 48.6928C1.85686 49.2321 2.5956 49.5354 3.36615 49.5362H20.9418V49.9197Z" fill="#3F3D56"/>
<path d="M99.391 41.6631C99.7923 41.9247 100.122 42.2808 100.35 42.6995C100.578 43.1182 100.697 43.5863 100.697 44.0619V44.7311H120.181C120.592 44.7311 120.987 44.5695 121.277 44.2818C121.568 43.9941 121.731 43.604 121.731 43.1971C121.731 42.7903 121.568 42.4001 121.277 42.1124C120.987 41.8247 120.592 41.6631 120.181 41.6631H99.391Z" fill="#E6E6E6"/>
<path d="M100.901 36.6776C100.902 36.2709 101.065 35.881 101.356 35.5934C101.646 35.3058 102.04 35.144 102.451 35.1436H109.039C109.45 35.1436 109.845 35.3052 110.135 35.5929C110.426 35.8805 110.589 36.2707 110.589 36.6776C110.589 37.0844 110.426 37.4746 110.135 37.7623C109.845 38.05 109.45 38.2116 109.039 38.2116H102.451C102.04 38.2111 101.646 38.0494 101.356 37.7618C101.065 37.4742 100.902 37.0843 100.901 36.6776Z" fill="#E6E6E6"/>
<path d="M115.676 25.7474C115.677 25.3407 115.84 24.9508 116.131 24.6632C116.422 24.3756 116.815 24.2138 117.226 24.2134H142.803C143.214 24.2134 143.608 24.375 143.899 24.6627C144.189 24.9504 144.353 25.3406 144.353 25.7474C144.353 26.1543 144.189 26.5444 143.899 26.8321C143.608 27.1198 143.214 27.2814 142.803 27.2814H117.226C116.815 27.281 116.422 27.1192 116.131 26.8316C115.84 26.544 115.677 26.1541 115.676 25.7474Z" fill="#E6E6E6"/>
<path d="M126.818 19.2284C126.818 18.8217 126.981 18.4317 127.272 18.1442C127.563 17.8566 127.957 17.6948 128.368 17.6943H131.661C132.073 17.6943 132.467 17.856 132.758 18.1436C133.048 18.4313 133.212 18.8215 133.212 19.2284C133.212 19.6352 133.048 20.0254 132.758 20.3131C132.467 20.6008 132.073 20.7624 131.661 20.7624H128.368C127.957 20.7619 127.563 20.6001 127.272 20.3126C126.981 20.025 126.818 19.6351 126.818 19.2284Z" fill="#E6E6E6"/>
<path d="M100.891 72.5151H125.002C125.876 72.5141 126.713 72.1704 127.33 71.5593C127.948 70.9481 128.295 70.1196 128.296 69.2553V31.5108C128.295 30.6465 127.948 29.8179 127.33 29.2068C126.713 28.5957 125.876 28.2519 125.002 28.251H86.4882C85.6149 28.2519 84.7777 28.5957 84.1602 29.2068C83.5427 29.8179 83.1953 30.6465 83.1943 31.5108V40.8659H83.5819V31.5108C83.5827 30.7482 83.8892 30.0171 84.4341 29.4779C84.9789 28.9387 85.7177 28.6353 86.4882 28.6345H125.002C125.773 28.6353 126.512 28.9387 127.056 29.4779C127.601 30.0171 127.908 30.7482 127.909 31.5108V69.2553C127.908 70.0179 127.601 70.749 127.056 71.2882C126.512 71.8274 125.773 72.1307 125.002 72.1316H100.891V72.5151Z" fill="#3F3D56"/>
<path d="M128.102 49.9197H145.678C146.551 49.9188 147.389 49.575 148.006 48.9639C148.624 48.3528 148.971 47.5242 148.972 46.6599V15.9683C148.971 15.104 148.624 14.2755 148.006 13.6643C147.389 13.0532 146.551 12.7095 145.678 12.7085H114.351C113.478 12.7095 112.64 13.0532 112.023 13.6643C111.405 14.2755 111.058 15.104 111.057 15.9683V28.4427H111.445V15.9683C111.446 15.2057 111.752 14.4746 112.297 13.9354C112.842 13.3962 113.58 13.0929 114.351 13.092H145.678C146.449 13.0929 147.187 13.3962 147.732 13.9354C148.277 14.4746 148.584 15.2057 148.584 15.9683V46.6599C148.584 47.4225 148.277 48.1536 147.732 48.6928C147.187 49.2321 146.449 49.5354 145.678 49.5362H128.102V49.9197Z" fill="#3F3D56"/>
<path d="M97.7091 40.8022H51.2537C50.3807 40.804 49.5439 41.148 48.9265 41.7589C48.3092 42.3699 47.9616 43.198 47.9598 44.062V89.6013C47.9608 90.4656 48.3081 91.2942 48.9256 91.9054C49.5431 92.5165 50.3804 92.8602 51.2537 92.8611H97.7091C98.5825 92.8602 99.4197 92.5165 100.037 91.9054C100.655 91.2942 101.002 90.4656 101.003 89.6013V44.062C101.002 43.1978 100.655 42.3692 100.037 41.758C99.4197 41.1469 98.5825 40.8032 97.7091 40.8022ZM100.616 89.6013C100.615 90.3639 100.308 91.095 99.7632 91.6342C99.2184 92.1734 98.4797 92.4767 97.7091 92.4776H51.2537C50.4832 92.4767 49.7445 92.1734 49.1996 91.6342C48.6548 91.095 48.3483 90.3639 48.3474 89.6013V44.062C48.3485 43.2996 48.6551 42.5686 49.1999 42.0295C49.7447 41.4903 50.4833 41.1869 51.2537 41.1858H97.7091C98.4797 41.1867 99.2184 41.49 99.7632 42.0292C100.308 42.5684 100.615 43.2995 100.616 44.062V89.6013Z" fill="#3F3D56"/>
<path d="M94.0509 58.5373H54.9118C54.5007 58.5373 54.1064 58.3757 53.8157 58.088C53.525 57.8003 53.3617 57.4101 53.3617 57.0033C53.3617 56.5964 53.525 56.2062 53.8157 55.9185C54.1064 55.6309 54.5007 55.4692 54.9118 55.4692H94.0509C94.462 55.4692 94.8563 55.6309 95.147 55.9185C95.4377 56.2062 95.601 56.5964 95.601 57.0033C95.601 57.4101 95.4377 57.8003 95.147 58.088C94.8563 58.3757 94.462 58.5373 94.0509 58.5373Z" fill="#3B99FC"/>
<path d="M82.9097 52.0177H66.0528C65.6416 52.0177 65.2474 51.8561 64.9567 51.5684C64.666 51.2808 64.5027 50.8906 64.5027 50.4837C64.5027 50.0769 64.666 49.6867 64.9567 49.399C65.2474 49.1113 65.6416 48.9497 66.0528 48.9497H82.9097C83.3208 48.9497 83.7151 49.1113 84.0058 49.399C84.2965 49.6867 84.4598 50.0769 84.4598 50.4837C84.4598 50.8906 84.2965 51.2808 84.0058 51.5684C83.7151 51.8561 83.3208 52.0177 82.9097 52.0177Z" fill="#3B99FC"/>
<path d="M71.6718 67.7414H54.8148C54.4037 67.7414 54.0095 67.5798 53.7188 67.2921C53.4281 67.0044 53.2648 66.6142 53.2648 66.2074C53.2648 65.8005 53.4281 65.4103 53.7188 65.1226C54.0095 64.835 54.4037 64.6733 54.8148 64.6733H71.6718C72.0829 64.6733 72.4772 64.835 72.7679 65.1226C73.0585 65.4103 73.2219 65.8005 73.2219 66.2074C73.2219 66.6142 73.0585 67.0044 72.7679 67.2921C72.4772 67.5798 72.0829 67.7414 71.6718 67.7414Z" fill="#3B99FC"/>
<path d="M71.6718 74.4528H54.8148C54.4037 74.4528 54.0095 74.2912 53.7188 74.0035C53.4281 73.7158 53.2648 73.3256 53.2648 72.9188C53.2648 72.5119 53.4281 72.1218 53.7188 71.8341C54.0095 71.5464 54.4037 71.3848 54.8148 71.3848H71.6718C72.0829 71.3848 72.4772 71.5464 72.7679 71.8341C73.0585 72.1218 73.2219 72.5119 73.2219 72.9188C73.2219 73.3256 73.0585 73.7158 72.7679 74.0035C72.4772 74.2912 72.0829 74.4528 71.6718 74.4528Z" fill="#3B99FC"/>
<path d="M71.6718 81.1642H54.8148C54.4037 81.1642 54.0095 81.0026 53.7188 80.7149C53.4281 80.4272 53.2648 80.0371 53.2648 79.6302C53.2648 79.2234 53.4281 78.8332 53.7188 78.5455C54.0095 78.2578 54.4037 78.0962 54.8148 78.0962H71.6718C72.0829 78.0962 72.4772 78.2578 72.7679 78.5455C73.0585 78.8332 73.2219 79.2234 73.2219 79.6302C73.2219 80.0371 73.0585 80.4272 72.7679 80.7149C72.4772 81.0026 72.0829 81.1642 71.6718 81.1642Z" fill="#3B99FC"/>
<path d="M92.6957 69.0564C94.2933 69.0564 95.5884 67.7748 95.5884 66.1938C95.5884 64.6127 94.2933 63.3311 92.6957 63.3311C91.0982 63.3311 89.8031 64.6127 89.8031 66.1938C89.8031 67.7748 91.0982 69.0564 92.6957 69.0564Z" fill="#3B99FC"/>
<path d="M92.4091 67.2861C92.344 67.2862 92.2806 67.2654 92.2286 67.2267L92.2254 67.2243L91.5455 66.7097C91.482 66.6615 91.4403 66.5902 91.4298 66.5116C91.4194 66.433 91.4408 66.3535 91.4896 66.2905C91.5383 66.2276 91.6104 66.1864 91.6898 66.176C91.7692 66.1656 91.8496 66.1869 91.9131 66.2352L92.3535 66.5693L93.394 65.2259C93.4181 65.1948 93.4482 65.1686 93.4826 65.149C93.5169 65.1294 93.5548 65.1166 93.5941 65.1115C93.6334 65.1063 93.6734 65.1089 93.7117 65.119C93.75 65.1292 93.7859 65.1467 93.8174 65.1706L93.8175 65.1706L93.811 65.1795L93.8176 65.1706C93.8811 65.2189 93.9227 65.2902 93.9331 65.3687C93.9436 65.4473 93.9222 65.5268 93.8735 65.5897L92.6496 67.1692C92.6213 67.2056 92.5849 67.235 92.5432 67.2552C92.5016 67.2754 92.4557 67.2859 92.4093 67.2857L92.4091 67.2861Z" fill="white"/>
<path d="M19.0296 8.89908C18.1404 8.89908 17.2711 8.63811 16.5317 8.14919C15.7924 7.66026 15.2161 6.96534 14.8758 6.15229C14.5355 5.33924 14.4465 4.44459 14.62 3.58147C14.7934 2.71834 15.2217 1.92551 15.8505 1.30323C16.4792 0.680957 17.2804 0.257182 18.1525 0.0854973C19.0247 -0.0861873 19.9287 0.00192847 20.7502 0.338704C21.5718 0.67548 22.274 1.24579 22.768 1.97751C23.262 2.70923 23.5257 3.56951 23.5257 4.44954C23.5244 5.62923 23.0502 6.76021 22.2074 7.59437C21.3645 8.42853 20.2217 8.89775 19.0296 8.89908ZM19.0296 0.383507C18.217 0.383512 17.4227 0.621985 16.747 1.06877C16.0714 1.51555 15.5448 2.15058 15.2338 2.89355C14.9229 3.63652 14.8415 4.45407 15 5.2428C15.1586 6.03153 15.5499 6.75603 16.1245 7.32467C16.6991 7.89331 17.4311 8.28056 18.2281 8.43745C19.0251 8.59434 19.8512 8.51381 20.6019 8.20607C21.3527 7.89832 21.9943 7.37716 22.4458 6.70851C22.8973 6.03985 23.1382 5.25373 23.1382 4.44954C23.137 3.37153 22.7037 2.33803 21.9335 1.57576C21.1632 0.813494 20.1189 0.384721 19.0296 0.383507Z" fill="#3F3D56"/>
<path d="M47.5501 24.4313C46.6609 24.4313 45.7916 24.1703 45.0522 23.6814C44.3129 23.1925 43.7366 22.4976 43.3963 21.6845C43.056 20.8715 42.967 19.9768 43.1405 19.1137C43.314 18.2506 43.7422 17.4577 44.371 16.8355C44.9998 16.2132 45.8009 15.7894 46.673 15.6177C47.5452 15.446 48.4492 15.5342 49.2707 15.8709C50.0923 16.2077 50.7945 16.778 51.2885 17.5097C51.7825 18.2415 52.0462 19.1017 52.0462 19.9818C52.0449 21.1615 51.5708 22.2924 50.7279 23.1266C49.885 23.9608 48.7421 24.43 47.5501 24.4313ZM47.5501 15.9157C46.7375 15.9157 45.9432 16.1542 45.2675 16.601C44.5919 17.0478 44.0653 17.6828 43.7543 18.4258C43.4434 19.1688 43.362 19.9863 43.5205 20.775C43.6791 21.5638 44.0704 22.2883 44.645 22.8569C45.2196 23.4255 45.9516 23.8128 46.7486 23.9697C47.5456 24.1266 48.3717 24.046 49.1224 23.7383C49.8732 23.4305 50.5149 22.9094 50.9663 22.2407C51.4178 21.5721 51.6587 20.786 51.6587 19.9818C51.6575 18.9038 51.2242 17.8702 50.454 17.108C49.6837 16.3457 48.6394 15.9169 47.5501 15.9157Z" fill="#3F3D56"/>
<path d="M92.6957 75.7679C94.2933 75.7679 95.5884 74.4862 95.5884 72.9052C95.5884 71.3242 94.2933 70.0425 92.6957 70.0425C91.0982 70.0425 89.8031 71.3242 89.8031 72.9052C89.8031 74.4862 91.0982 75.7679 92.6957 75.7679Z" fill="#3B99FC"/>
<path d="M92.4091 73.9975C92.344 73.9976 92.2806 73.9768 92.2286 73.9382L92.2254 73.9358L91.5455 73.4211C91.5141 73.3972 91.4876 73.3675 91.4678 73.3335C91.4479 73.2995 91.435 73.2619 91.4298 73.223C91.4247 73.1841 91.4272 73.1445 91.4375 73.1066C91.4478 73.0687 91.4655 73.0331 91.4896 73.002C91.5137 72.9708 91.5438 72.9446 91.5782 72.925C91.6125 72.9054 91.6505 72.8926 91.6898 72.8875C91.7291 72.8823 91.7691 72.8849 91.8074 72.895C91.8457 72.9052 91.8817 72.9227 91.9131 72.9466L92.3535 73.2808L93.394 71.9373C93.4181 71.9062 93.4482 71.8801 93.4825 71.8604C93.5169 71.8408 93.5548 71.828 93.5941 71.8229C93.6334 71.8177 93.6734 71.8203 93.7117 71.8305C93.75 71.8406 93.7859 71.8581 93.8174 71.882L93.8175 71.8821L93.811 71.8909L93.8176 71.8821C93.8811 71.9303 93.9227 72.0016 93.9331 72.0802C93.9436 72.1587 93.9222 72.2382 93.8735 72.3011L92.6496 73.8806C92.6213 73.917 92.5849 73.9464 92.5432 73.9666C92.5016 73.9869 92.4557 73.9973 92.4093 73.9972L92.4091 73.9975Z" fill="white"/>
<path d="M92.6957 82.493C94.2933 82.493 95.5884 81.2113 95.5884 79.6303C95.5884 78.0493 94.2933 76.7676 92.6957 76.7676C91.0982 76.7676 89.8031 78.0493 89.8031 79.6303C89.8031 81.2113 91.0982 82.493 92.6957 82.493Z" fill="#3B99FC"/>
<path d="M92.4091 80.7221C92.344 80.7222 92.2806 80.7014 92.2286 80.6628L92.2253 80.6604L91.5455 80.1457C91.482 80.0975 91.4405 80.0262 91.4301 79.9476C91.4196 79.8691 91.4411 79.7896 91.4898 79.7268C91.5386 79.6639 91.6105 79.6227 91.6899 79.6123C91.7692 79.6019 91.8495 79.623 91.9131 79.6712L92.3535 80.0054L93.394 78.6619C93.4181 78.6308 93.4482 78.6047 93.4825 78.585C93.5169 78.5654 93.5548 78.5526 93.5941 78.5475C93.6334 78.5424 93.6734 78.5449 93.7117 78.5551C93.75 78.5652 93.7859 78.5827 93.8174 78.6066L93.8175 78.6067L93.811 78.6155L93.8176 78.6067C93.8811 78.655 93.9227 78.7262 93.9331 78.8048C93.9436 78.8833 93.9222 78.9628 93.8735 79.0257L92.6496 80.6052C92.6213 80.6416 92.5849 80.671 92.5432 80.6912C92.5016 80.7115 92.4557 80.7219 92.4093 80.7218L92.4091 80.7221Z" fill="white"/>
<path d="M74.4856 36.8952C71.4341 36.8437 70.0473 34.5524 70.0475 32.4453C70.0477 30.3381 71.4345 28.0471 74.4792 27.9961H74.4858C77.5309 28.0475 78.9177 30.3388 78.9175 32.4459C78.9174 34.553 77.5304 36.8442 74.4856 36.8952ZM74.4825 28.3796C71.7017 28.4277 70.4351 30.5205 70.435 32.4453C70.4349 34.3708 71.7024 36.4647 74.4857 36.5117C77.2622 36.465 78.5299 34.3714 78.53 32.4459C78.5301 30.5212 77.2634 28.4284 74.4825 28.3796Z" fill="#3F3D56"/>
<path d="M101.802 24.4313C100.913 24.4313 100.044 24.1703 99.3044 23.6814C98.5651 23.1925 97.9888 22.4976 97.6485 21.6845C97.3082 20.8715 97.2192 19.9768 97.3927 19.1137C97.5662 18.2506 97.9944 17.4577 98.6232 16.8355C99.252 16.2132 100.053 15.7894 100.925 15.6177C101.797 15.446 102.701 15.5342 103.523 15.8709C104.344 16.2077 105.047 16.778 105.541 17.5097C106.035 18.2415 106.298 19.1017 106.298 19.9818C106.297 21.1615 105.823 22.2924 104.98 23.1266C104.137 23.9608 102.994 24.43 101.802 24.4313ZM101.802 15.9157C100.99 15.9157 100.195 16.1542 99.5197 16.601C98.8441 17.0478 98.3175 17.6828 98.0065 18.4258C97.6956 19.1688 97.6142 19.9863 97.7727 20.775C97.9313 21.5638 98.3226 22.2883 98.8972 22.8569C99.4718 23.4255 100.204 23.8128 101.001 23.9697C101.798 24.1266 102.624 24.046 103.375 23.7383C104.125 23.4305 104.767 22.9094 105.218 22.2407C105.67 21.5721 105.911 20.786 105.911 19.9818C105.91 18.9038 105.476 17.8702 104.706 17.108C103.936 16.3457 102.892 15.9169 101.802 15.9157Z" fill="#3F3D56"/>
<path d="M130.015 8.89908C129.125 8.89907 128.256 8.6381 127.517 8.14918C126.777 7.66025 126.201 6.96532 125.861 6.15227C125.52 5.33923 125.431 4.44457 125.605 3.58145C125.778 2.71833 126.207 1.9255 126.835 1.30323C127.464 0.680951 128.265 0.257178 129.138 0.0854951C130.01 -0.0861875 130.914 0.00193133 131.735 0.338708C132.557 0.675484 133.259 1.24579 133.753 1.97752C134.247 2.70924 134.511 3.56951 134.511 4.44954C134.509 5.62923 134.035 6.76021 133.192 7.59437C132.349 8.42853 131.207 8.89775 130.015 8.89908ZM130.015 0.383508C129.202 0.383517 128.408 0.621994 127.732 1.06878C127.056 1.51557 126.53 2.1506 126.219 2.89357C125.908 3.63654 125.826 4.45409 125.985 5.24282C126.144 6.03155 126.535 6.75604 127.109 7.32468C127.684 7.89332 128.416 8.28057 129.213 8.43745C130.01 8.59434 130.836 8.51381 131.587 8.20606C132.338 7.89831 132.979 7.37716 133.431 6.7085C133.882 6.03985 134.123 5.25373 134.123 4.44954C134.122 3.37153 133.689 2.33802 132.918 1.57575C132.148 0.813486 131.104 0.384716 130.015 0.383508Z" fill="#3F3D56"/>
</svg>
