<svg width="137" height="96" viewBox="0 0 137 96" fill="none" xmlns="http://www.w3.org/2000/svg">
<path d="M19.7321 32.5942H17.7321V54.7129H19.7321V32.5942Z" fill="#AFCAEF"/>
<path d="M55.2914 58.2368H19.0303V60.2368H55.2914V58.2368Z" fill="#AFCAEF"/>
<path d="M58.9247 88.0122H15.3204V90.0122H58.9247V88.0122Z" fill="#AFCAEF"/>
<path d="M68.2866 15.2446H66.2866V46.9604H68.2866V15.2446Z" fill="#AFCAEF"/>
<path d="M19.739 33.134C18.1658 33.134 16.628 32.6656 15.3199 31.7879C14.0119 30.9102 12.9924 29.6627 12.3904 28.2031C11.7884 26.7436 11.6308 25.1375 11.9377 23.588C12.2447 22.0386 13.0022 20.6153 14.1146 19.4982C15.227 18.3811 16.6443 17.6204 18.1872 17.3122C19.7301 17.004 21.3295 17.1622 22.7829 17.7667C24.2363 18.3713 25.4785 19.3951 26.3525 20.7087C27.2265 22.0222 27.693 23.5666 27.693 25.1464C27.6907 27.2641 26.8519 29.2944 25.3608 30.7919C23.8696 32.2894 21.8478 33.1317 19.739 33.134ZM19.739 18.0984C18.3509 18.0984 16.994 18.5118 15.8398 19.2862C14.6857 20.0607 13.7861 21.1614 13.2549 22.4492C12.7237 23.7371 12.5847 25.1542 12.8555 26.5214C13.1263 27.8885 13.7948 29.1444 14.7763 30.13C15.7578 31.1157 17.0084 31.7869 18.3698 32.0589C19.7312 32.3308 21.1423 32.1913 22.4248 31.6578C23.7072 31.1244 24.8033 30.221 25.5745 29.062C26.3457 27.903 26.7573 26.5403 26.7573 25.1464C26.7552 23.2778 26.0151 21.4863 24.6994 20.165C23.3836 18.8437 21.5997 18.1005 19.739 18.0984Z" fill="#3F3D56"/>
<path d="M7.95408 95.9997C6.38091 95.9997 4.84307 95.5313 3.53503 94.6536C2.22699 93.7759 1.2075 92.5284 0.605474 91.0688C0.00344966 89.6093 -0.154072 88.0032 0.152838 86.4538C0.459747 84.9043 1.21731 83.481 2.3297 82.3639C3.4421 81.2469 4.85937 80.4861 6.40231 80.1779C7.94524 79.8697 9.54455 80.0279 10.998 80.6324C12.4514 81.237 13.6936 82.2608 14.5676 83.5744C15.4416 84.8879 15.9081 86.4323 15.9081 88.0121C15.9058 90.1298 15.067 92.1601 13.5759 93.6576C12.0847 95.1551 10.0629 95.9974 7.95408 95.9997ZM7.95408 80.9641C6.56599 80.9641 5.20907 81.3775 4.05492 82.1519C2.90077 82.9264 2.00121 84.0271 1.47001 85.315C0.938812 86.6028 0.799831 88.0199 1.07063 89.3871C1.34144 90.7542 2.00986 92.0101 2.99138 92.9957C3.97291 93.9814 5.22346 94.6526 6.58487 94.9246C7.94629 95.1965 9.35743 95.057 10.6399 94.5235C11.9223 93.9901 13.0184 93.0867 13.7896 91.9277C14.5608 90.7687 14.9724 89.406 14.9724 88.0121C14.9703 86.1435 14.2302 84.352 12.9145 83.0307C11.5987 81.7094 9.81481 80.9662 7.95408 80.9641Z" fill="#3F3D56"/>
<path d="M20.0071 65.7709C24.1414 65.7709 27.4928 62.4053 27.4928 58.2536C27.4928 54.1019 24.1414 50.7363 20.0071 50.7363C15.8729 50.7363 12.5215 54.1019 12.5215 58.2536C12.5215 62.4053 15.8729 65.7709 20.0071 65.7709Z" fill="#6C63FF"/>
<path d="M113.841 32.5425H111.841V50.1449H113.841V32.5425Z" fill="#AFCAEF"/>
<path d="M105.328 58.2803H77.928V60.2803H105.328V58.2803Z" fill="#AFCAEF"/>
<path d="M125.215 88.0122H73.8032V90.0122H125.215V88.0122Z" fill="#5D9DF6"/>
<path d="M68.2867 65.5459H66.2867V80.1117H68.2867V65.5459Z" fill="#AFCAEF"/>
<path d="M112.814 36.4828C116.948 36.4828 120.299 33.1172 120.299 28.9655C120.299 24.8138 116.948 21.4482 112.814 21.4482C108.679 21.4482 105.328 24.8138 105.328 28.9655C105.328 33.1172 108.679 36.4828 112.814 36.4828Z" fill="#6C63FF"/>
<path d="M66.8142 16.0696C65.2412 16.0696 63.7035 15.6012 62.3956 14.7236C61.0876 13.846 60.0682 12.5986 59.4663 11.1392C58.8643 9.67973 58.7068 8.07382 59.0137 6.5245C59.3205 4.97518 60.078 3.55204 61.1903 2.43504C62.3026 1.31804 63.7198 0.557352 65.2626 0.249173C66.8054 -0.0590061 68.4046 0.0991671 69.8578 0.703682C71.3111 1.3082 72.5533 2.33191 73.4272 3.64536C74.3011 4.95881 74.7676 6.50301 74.7676 8.08268C74.7652 10.2002 73.9265 12.2304 72.4355 13.7277C70.9445 15.225 68.9229 16.0673 66.8142 16.0696ZM66.8142 1.03535C65.4262 1.03535 64.0694 1.44867 62.9154 2.22304C61.7613 2.99741 60.8619 4.09805 60.3307 5.38579C59.7996 6.67352 59.6606 8.0905 59.9314 9.45755C60.2021 10.8246 60.8705 12.0803 61.852 13.0659C62.8334 14.0515 64.0838 14.7227 65.4451 14.9946C66.8064 15.2665 68.2175 15.127 69.4998 14.5936C70.7821 14.0602 71.8781 13.1569 72.6492 11.998C73.4203 10.839 73.8319 9.47651 73.8319 8.08268C73.8298 6.21425 73.0898 4.42294 71.7742 3.10176C70.4586 1.78058 68.6748 1.03743 66.8142 1.03535Z" fill="#3F3D56"/>
<path d="M129.46 95.9467C133.594 95.9467 136.946 92.5811 136.946 88.4294C136.946 84.2777 133.594 80.9121 129.46 80.9121C125.326 80.9121 121.974 84.2777 121.974 88.4294C121.974 92.5811 125.326 95.9467 129.46 95.9467Z" fill="#6C63FF"/>
<path d="M66.4369 95.9997C64.8637 95.9997 63.3258 95.5313 62.0178 94.6536C60.7098 93.7759 59.6903 92.5284 59.0883 91.0688C58.4862 89.6093 58.3287 88.0032 58.6356 86.4538C58.9425 84.9043 59.7001 83.481 60.8125 82.3639C61.9249 81.2469 63.3422 80.4861 64.8851 80.1779C66.428 79.8697 68.0273 80.0279 69.4807 80.6324C70.9342 81.237 72.1764 82.2608 73.0504 83.5744C73.9244 84.8879 74.3909 86.4323 74.3909 88.0121C74.3886 90.1298 73.5498 92.1601 72.0586 93.6576C70.5675 95.1551 68.5457 95.9974 66.4369 95.9997ZM66.4369 80.9641C65.0488 80.9641 63.6919 81.3775 62.5377 82.1519C61.3835 82.9264 60.484 84.0271 59.9528 85.315C59.4216 86.6028 59.2826 88.0199 59.5534 89.3871C59.8242 90.7542 60.4927 92.0101 61.4742 92.9957C62.4557 93.9814 63.7062 94.6526 65.0677 94.9246C66.4291 95.1965 67.8402 95.057 69.1227 94.5235C70.4051 93.9901 71.5012 93.0867 72.2724 91.9277C73.0435 90.7687 73.4552 89.406 73.4552 88.0121C73.4531 86.1435 72.713 84.352 71.3973 83.0307C70.0815 81.7094 68.2976 80.9662 66.4369 80.9641Z" fill="#3F3D56"/>
<path d="M112.84 66.1199C111.267 66.1199 109.729 65.6514 108.421 64.7737C107.113 63.896 106.093 62.6485 105.491 61.189C104.889 59.7294 104.732 58.1233 105.039 56.5739C105.346 55.0244 106.103 53.6012 107.216 52.4841C108.328 51.367 109.745 50.6062 111.288 50.298C112.831 49.9898 114.431 50.148 115.884 50.7526C117.337 51.3571 118.58 52.3809 119.454 53.6945C120.328 55.0081 120.794 56.5524 120.794 58.1322C120.792 60.2499 119.953 62.2803 118.462 63.7777C116.971 65.2752 114.949 66.1175 112.84 66.1199ZM112.84 51.0843C111.452 51.0843 110.095 51.4976 108.941 52.2721C107.787 53.0465 106.887 54.1472 106.356 55.4351C105.825 56.7229 105.686 58.14 105.957 59.5072C106.227 60.8744 106.896 62.1302 107.877 63.1159C108.859 64.1015 110.109 64.7728 111.471 65.0447C112.832 65.3167 114.243 65.1771 115.526 64.6437C116.808 64.1102 117.904 63.2069 118.676 62.0478C119.447 60.8888 119.858 59.5262 119.858 58.1322C119.856 56.2636 119.116 54.4722 117.8 53.1509C116.485 51.8296 114.701 51.0863 112.84 51.0843Z" fill="#3F3D56"/>
<g clip-path="url(#clip0)">
<path d="M80.2077 58.2369C80.2077 50.5817 74.028 44.376 66.4051 44.376C58.7821 44.376 52.6024 50.5817 52.6024 58.2369C52.6024 65.8921 58.7821 72.0979 66.4051 72.0979C74.028 72.0979 80.2077 65.8921 80.2077 58.2369Z" fill="url(#paint0_radial)"/>
<path d="M61.7256 54.3672C64.31 51.8262 68.5001 51.8262 71.0845 54.3672L71.3955 54.673C71.5248 54.8001 71.5248 55.006 71.3955 55.1331L70.3316 56.1792C70.2669 56.2428 70.1622 56.2428 70.0976 56.1792L69.6696 55.7584C67.8666 53.9857 64.9435 53.9857 63.1406 55.7584L62.6822 56.2091C62.6176 56.2726 62.5128 56.2726 62.4482 56.2091L61.3842 55.1629C61.255 55.0359 61.255 54.8299 61.3842 54.7028L61.7256 54.3672ZM73.2849 56.5307L74.2319 57.4618C74.3611 57.5888 74.3611 57.7948 74.2319 57.9219L69.962 62.1201C69.8328 62.2472 69.6233 62.2472 69.4941 62.1201L69.4941 62.1201L66.4636 59.1405C66.4313 59.1087 66.3789 59.1087 66.3466 59.1405C66.3466 59.1405 66.3466 59.1405 66.3466 59.1405L63.3162 62.1201C63.187 62.2472 62.9774 62.2472 62.8482 62.1201C62.8482 62.1201 62.8482 62.1201 62.8482 62.1201L58.5782 57.9218C58.449 57.7948 58.449 57.5888 58.5782 57.4617L59.5252 56.5306C59.6544 56.4036 59.8639 56.4036 59.9931 56.5306L63.0237 59.5103C63.056 59.5421 63.1083 59.5421 63.1407 59.5103C63.1407 59.5103 63.1407 59.5103 63.1407 59.5103L66.171 56.5306C66.3003 56.4036 66.5098 56.4036 66.639 56.5306C66.639 56.5306 66.639 56.5306 66.639 56.5306L69.6695 59.5103C69.7018 59.5421 69.7542 59.5421 69.7865 59.5103L72.817 56.5307C72.9462 56.4037 73.1557 56.4037 73.2849 56.5307Z" fill="white"/>
</g>
<defs>
<radialGradient id="paint0_radial" cx="0" cy="0" r="1" gradientUnits="userSpaceOnUse" gradientTransform="translate(52.6024 58.2369) scale(27.6053 27.7219)">
<stop stop-color="#5D9DF6"/>
<stop offset="1" stop-color="#006FFF"/>
</radialGradient>
<clipPath id="clip0">
<rect width="27.6053" height="27.7219" fill="white" transform="translate(52.6024 44.376)"/>
</clipPath>
</defs>
</svg>
