<svg width="154" height="109" viewBox="0 0 154 109" fill="none" xmlns="http://www.w3.org/2000/svg">
<path d="M65.4231 46.4794C65.1813 46.3013 64.9504 46.1088 64.7318 45.9029L65.031 45.5845C65.2369 45.7783 65.4543 45.9596 65.6819 46.1273L65.4231 46.4794Z" fill="#E4E4E4"/>
<path d="M63.5305 44.4339C63.1956 43.8945 62.9318 43.3139 62.7456 42.7068L63.163 42.5784C63.3382 43.1495 63.5863 43.6956 63.9013 44.2031L63.5305 44.4339ZM62.425 40.8371C62.4207 40.7338 62.4185 40.6303 62.4185 40.5267C62.4185 39.9955 62.4758 39.4658 62.5892 38.9469L63.0157 39.0406C62.909 39.5287 62.8552 40.027 62.8552 40.5267C62.8552 40.6242 62.8572 40.7215 62.8613 40.8187L62.425 40.8371ZM63.6195 37.3617L63.2313 37.1616C63.4116 36.8112 63.6194 36.4757 63.8527 36.1582C63.9959 35.9634 64.1505 35.7774 64.3159 35.6012L64.634 35.9007C64.4807 36.0641 64.3372 36.2366 64.2045 36.4173C63.9849 36.7161 63.7893 37.0319 63.6196 37.3617H63.6195ZM66.0352 34.8254L65.829 34.44C66.3926 34.1376 67.0013 33.9284 67.6315 33.8202L67.7055 34.2512C67.1215 34.3513 66.5575 34.5452 66.0352 34.8254H66.0352ZM71.1512 34.7776C70.6245 34.5062 70.0573 34.3224 69.4716 34.2335L69.5372 33.8013C70.1696 33.8973 70.7822 34.0957 71.3509 34.3888L71.1512 34.7776Z" fill="#E4E4E4"/>
<path d="M73.0546 36.5081C72.9115 36.2701 72.7461 36.0465 72.5604 35.8401L72.8848 35.5474C73.0892 35.7745 73.2713 36.0208 73.4288 36.2828L73.0546 36.5081Z" fill="#E4E4E4"/>
<path d="M56.3143 31.8565L55.9625 31.5975C56.1372 31.3597 56.3213 31.1245 56.5098 30.8984L56.845 31.1787C56.6623 31.3979 56.4837 31.6259 56.3143 31.8565Z" fill="#E4E4E4"/>
<path d="M77.9494 31.3509C77.6139 30.8847 77.2422 30.4456 76.8378 30.0378L77.1476 29.7297C77.5682 30.1538 77.9548 30.6105 78.3038 31.0955L77.9494 31.3509ZM58.0333 29.9229L57.7358 29.6028C58.1712 29.1973 58.6316 28.8196 59.1145 28.4721L59.3692 28.8272C58.9014 29.1639 58.4552 29.5299 58.0333 29.9229ZM75.5342 28.9147C75.0697 28.5733 74.5845 28.2611 74.0814 27.9798L74.2941 27.5979C74.813 27.8881 75.3135 28.2102 75.7926 28.5623L75.5342 28.9147ZM60.8325 27.9092L60.6246 27.5248C61.1474 27.2414 61.6874 26.9912 62.2415 26.7755L62.3997 27.1829C61.8626 27.392 61.3392 27.6346 60.8325 27.9092ZM72.5238 27.2343C71.9894 27.0191 71.4419 26.8378 70.8848 26.6916L70.9954 26.2686C71.5704 26.4195 72.1353 26.6066 72.6868 26.8287L72.5238 27.2343ZM64.0454 26.6588L63.9393 26.2347C64.5159 26.0903 65.101 25.9819 65.691 25.9102L65.7435 26.3443C65.1715 26.4138 64.6044 26.5188 64.0454 26.6588V26.6588ZM69.1903 26.3599C68.619 26.2853 68.0436 26.2466 67.4675 26.2439L67.4695 25.8066C68.0639 25.8095 68.6575 25.8495 69.2469 25.9264L69.1903 26.3599Z" fill="#E4E4E4"/>
<path d="M79.1961 33.6058C79.0886 33.3421 78.9694 33.0796 78.842 32.8258L79.2322 32.6294C79.3647 32.8935 79.4886 33.1664 79.6003 33.4406L79.1961 33.6058Z" fill="#E4E4E4"/>
<path d="M80.3928 59.2999L80.2428 58.8893C80.5118 58.7907 80.783 58.6852 81.0486 58.5757L81.2149 58.98C80.9439 59.0918 80.6673 59.1994 80.3928 59.2999Z" fill="#E4E4E4"/>
<path d="M73.5846 60.6354L73.5686 60.1984C74.1352 60.1777 74.7079 60.1343 75.2707 60.0692L75.3208 60.5036C74.7466 60.5699 74.1625 60.6142 73.5846 60.6354ZM71.8433 60.6303C71.2648 60.6057 70.6809 60.5578 70.1079 60.4878L70.1608 60.0538C70.7224 60.1224 71.2948 60.1693 71.8618 60.1935L71.8433 60.6303ZM77.0414 60.2358L76.9574 59.8067C77.5135 59.6977 78.0724 59.565 78.6184 59.4126L78.7356 59.8337C78.1787 59.9892 77.6087 60.1245 77.0414 60.2358ZM68.3892 60.2085C67.8224 60.0931 67.2533 59.9536 66.6978 59.7936L66.8185 59.3734C67.3629 59.5301 67.9206 59.667 68.4761 59.7801L68.3892 60.2085ZM65.0447 59.2455C64.5036 59.0418 63.9638 58.8137 63.4404 58.5674L63.6261 58.1718C64.139 58.413 64.668 58.6366 65.1984 58.8363L65.0447 59.2455ZM61.8951 57.7644C61.3943 57.4785 60.8973 57.1682 60.4178 56.8421L60.6632 56.4805C61.1332 56.8001 61.6205 57.1043 62.1113 57.3845L61.8951 57.7644Z" fill="#E4E4E4"/>
<path d="M59.0132 55.7987C58.7854 55.6124 58.5597 55.4184 58.3424 55.2221L58.6349 54.8975C58.847 55.0891 59.0671 55.2783 59.2894 55.4601L59.0132 55.7987Z" fill="#E4E4E4"/>
<path d="M46.9249 11.7139L46.7006 11.3388C46.9514 11.1885 47.207 11.0397 47.4604 10.8965L47.675 11.2772C47.4249 11.4186 47.1725 11.5655 46.9249 11.7139Z" fill="#E4E4E4"/>
<path d="M88.9612 17.685C88.5871 17.2486 88.1933 16.8181 87.7909 16.4057L88.1033 16.1002C88.5122 16.5193 88.9123 16.9567 89.2926 17.4002L88.9612 17.685ZM86.5409 15.2042C86.1142 14.8196 85.6688 14.4429 85.2169 14.0848L85.4879 13.7419C85.947 14.1058 86.3996 14.4884 86.8331 14.8793L86.5409 15.2042ZM83.8251 13.0487C83.3528 12.7166 82.8668 12.3929 82.3807 12.0866L82.6133 11.7165C83.1056 12.0267 83.5978 12.3545 84.0761 12.6908L83.8251 13.0487ZM80.8897 11.1994C80.3877 10.9177 79.8715 10.6452 79.3553 10.3895L79.549 9.99765C80.0718 10.2566 80.5947 10.5327 81.1032 10.818L80.8897 11.1994ZM49.2081 10.462L49.0133 10.0707C49.5356 9.81007 50.0716 9.55957 50.6064 9.32615L50.7809 9.72695C50.2529 9.95737 49.7237 10.2047 49.2081 10.462L49.2081 10.462ZM77.7814 9.65963C77.2528 9.43076 76.7113 9.21279 76.1719 9.01175L76.3243 8.60199C76.8707 8.80566 77.4192 9.02648 77.9546 9.25826L77.7814 9.65963ZM52.3893 9.07359L52.2355 8.6644C52.7809 8.45895 53.3396 8.2646 53.8962 8.08684L54.0289 8.50343C53.4794 8.67892 52.9277 8.87078 52.3893 9.07359L52.3893 9.07359ZM74.5312 8.44771C73.9823 8.27478 73.4212 8.11381 72.8634 7.96927L72.9728 7.54599C73.5378 7.69237 74.1062 7.85548 74.6622 8.03069L74.5312 8.44771ZM55.6954 8.01781L55.5841 7.59495C56.1476 7.44629 56.7231 7.30994 57.2948 7.18982L57.3845 7.61765C56.82 7.73635 56.2517 7.87099 55.6954 8.0178L55.6954 8.01781ZM71.1731 7.57737C70.6096 7.46187 70.0349 7.35947 69.4649 7.273L69.5303 6.84075C70.1077 6.92828 70.6899 7.03204 71.2607 7.14896L71.1731 7.57737ZM59.0917 7.30431L59.0239 6.87235C59.5996 6.78176 60.186 6.70469 60.7668 6.64335L60.8126 7.07816C60.2392 7.13879 59.6602 7.21486 59.0917 7.30432V7.30431ZM67.7432 7.05688C67.1707 6.99981 66.5884 6.9569 66.0126 6.92921L66.0335 6.49255C66.6167 6.52051 67.2065 6.564 67.7864 6.62178L67.7432 7.05688ZM62.5427 6.94003L62.5192 6.50351C63.1022 6.47184 63.6934 6.4549 64.2763 6.45312L64.2776 6.89036C63.7021 6.89214 63.1184 6.90886 62.5427 6.94003L62.5427 6.94003Z" fill="#E4E4E4"/>
<path d="M90.5628 19.7473C90.3973 19.5113 90.2261 19.2754 90.0538 19.0459L90.4029 18.7832C90.578 19.0164 90.752 19.2562 90.9202 19.4961L90.5628 19.7473Z" fill="#E4E4E4"/>
<path d="M70.6781 90.4535C70.3884 90.4162 70.099 90.3766 69.8098 90.3345L69.8724 89.9019C70.1593 89.9435 70.4464 89.9828 70.7336 90.0198L70.6781 90.4535Z" fill="#E4E4E4"/>
<path d="M68.0425 90.0474C67.4581 89.9423 66.8672 89.8257 66.2862 89.701L66.3779 89.2734C66.954 89.3972 67.5401 89.5128 68.1197 89.617L68.0425 90.0474ZM64.5426 89.2958C63.9652 89.1513 63.3835 88.9953 62.8136 88.8319L62.9338 88.4116C63.4989 88.5735 64.0758 88.7283 64.6485 88.8716L64.5426 89.2958ZM61.1013 88.3101C60.5351 88.1271 59.9652 87.9321 59.4075 87.7308L59.5557 87.3194C60.1087 87.5192 60.6739 87.7125 61.2355 87.8941L61.1013 88.3101ZM57.7343 87.0948C57.1832 86.8745 56.6277 86.6417 56.0834 86.4026L56.2588 86.0022C56.7987 86.2393 57.3496 86.4703 57.8961 86.6887L57.7343 87.0948ZM54.4566 85.6552C53.9208 85.3981 53.3823 85.1284 52.856 84.8536L53.0579 84.4659C53.5799 84.7384 54.114 85.0059 54.6454 85.2609L54.4566 85.6552ZM51.2831 83.9987C50.7677 83.7074 50.2484 83.4023 49.7396 83.0919L49.9668 82.7185C50.4715 83.0264 50.9866 83.329 51.4978 83.618L51.2831 83.9987ZM48.2272 82.1341C47.7309 81.8081 47.2329 81.4692 46.7471 81.1267L46.9985 80.7692C47.4804 81.109 47.9744 81.4451 48.4667 81.7684L48.2272 82.1341ZM45.3003 80.0694C44.8255 79.7085 44.3529 79.3337 43.8956 78.9553L44.1738 78.6183C44.6265 78.9928 45.0943 79.3639 45.5644 79.7211L45.3003 80.0694ZM42.5382 77.7842C42.0956 77.386 41.6557 76.9733 41.2305 76.5573L41.5356 76.2446C41.9565 76.6562 42.392 77.0649 42.83 77.459L42.5382 77.7842ZM39.9751 75.2767C39.5674 74.843 39.1635 74.3948 38.7746 73.9445L39.1049 73.6585C39.4898 74.1042 39.8896 74.5478 40.2931 74.9771L39.9751 75.2767ZM37.631 72.5628C37.2611 72.0961 36.8962 71.6154 36.5466 71.1341L36.8998 70.877C37.2458 71.3533 37.6069 71.8291 37.9731 72.291L37.631 72.5628Z" fill="#E4E4E4"/>
<path d="M35.518 69.6532C35.356 69.409 35.1967 69.1634 35.04 68.9165L35.4086 68.6821C35.5637 68.9265 35.7214 69.1695 35.8817 69.4113L35.518 69.6532Z" fill="#E4E4E4"/>
<path d="M49.669 12.6458L49.3435 12.7462L46.598 3.81751C46.1766 2.44696 45.2287 1.30016 43.9628 0.62941C42.6969 -0.0413447 41.2168 -0.181116 39.848 0.240847H39.8479L20.9555 6.06486C20.2777 6.27379 19.6477 6.61435 19.1014 7.06708C18.555 7.51981 18.1031 8.07585 17.7714 8.70345C17.4397 9.33105 17.2347 10.0179 17.1681 10.7249C17.1016 11.4318 17.1747 12.1449 17.3834 12.8235V12.8236L32.4451 61.807C32.8665 63.1775 33.8144 64.3243 35.0803 64.9951C36.3462 65.6658 37.8263 65.8056 39.1951 65.3836H39.1951L58.0876 59.5596C59.4564 59.1377 60.6018 58.1885 61.2717 56.921C61.9416 55.6535 62.0812 54.1715 61.6597 52.8009V52.8009L51.2977 19.1018L51.6232 19.0014L49.669 12.6458Z" fill="#3F3D56"/>
<path d="M40.4696 1.52105L38.0036 2.28128C38.2026 2.52472 38.3387 2.81342 38.4001 3.12197C38.4614 3.43051 38.446 3.74941 38.3552 4.05059C38.2645 4.35178 38.1011 4.62599 37.8796 4.84907C37.6581 5.07215 37.3851 5.23726 37.0849 5.32985L26.2616 8.66636C25.9613 8.7589 25.6429 8.77609 25.3344 8.71639C25.0259 8.6567 24.7368 8.52196 24.4926 8.32404C24.2484 8.12613 24.0565 7.87112 23.9339 7.58147C23.8113 7.29182 23.7617 6.97642 23.7895 6.66306L21.4862 7.37311C20.464 7.68823 19.6086 8.39703 19.1084 9.34358C18.6081 10.2901 18.5038 11.3969 18.8186 12.4204L33.8582 61.332C34.1729 62.3555 34.8808 63.2119 35.8261 63.7128C36.7715 64.2137 37.8768 64.3181 38.899 64.003H38.8991L57.8825 58.1509C58.9047 57.8358 59.7601 57.127 60.2603 56.1804C60.7606 55.2339 60.8649 54.1271 60.5501 53.1036L45.5105 4.19206C45.1958 3.16855 44.4879 2.31213 43.5426 1.81122C42.5972 1.31031 41.4919 1.20594 40.4696 1.52105Z" fill="white"/>
<path d="M116.903 108.308L72.5848 92.3571C71.5348 91.9778 70.6779 91.197 70.2021 90.186C69.7263 89.1749 69.6705 88.0162 70.0469 86.964L93.1503 22.61C93.5291 21.5587 94.3089 20.7007 95.3186 20.2243C96.3284 19.748 97.4857 19.6921 98.5365 20.069L142.855 36.0202C143.905 36.3994 144.762 37.1802 145.238 38.1913C145.714 39.2024 145.769 40.3611 145.393 41.4133L122.29 105.767C121.911 106.819 121.131 107.677 120.121 108.153C119.111 108.629 117.954 108.685 116.903 108.308Z" fill="#3F3D56"/>
<path d="M117.89 105.806L73.4154 89.7982C73.0917 89.6813 72.8276 89.4406 72.6809 89.129C72.5343 88.8173 72.5171 88.4601 72.6331 88.1357L95.8895 23.3556C96.0062 23.0315 96.2466 22.767 96.5579 22.6202C96.8692 22.4733 97.2259 22.4561 97.5498 22.5723L142.024 38.5797C142.348 38.6966 142.612 38.9373 142.759 39.2489C142.906 39.5606 142.923 39.9178 142.807 40.2421L119.55 105.022C119.434 105.346 119.193 105.611 118.882 105.758C118.571 105.905 118.214 105.922 117.89 105.806Z" fill="white"/>
<path d="M120.091 29.5576C120.289 29.5576 120.449 29.397 120.449 29.199C120.449 29.0009 120.289 28.8403 120.091 28.8403C119.893 28.8403 119.733 29.0009 119.733 29.199C119.733 29.397 119.893 29.5576 120.091 29.5576Z" fill="white"/>
<path d="M46.4728 39.0023C50.25 35.2202 50.25 29.0884 46.4728 25.3063C42.6956 21.5243 36.5715 21.5243 32.7943 25.3063C29.0171 29.0884 29.0171 35.2202 32.7943 39.0023C36.5715 42.7843 42.6956 42.7843 46.4728 39.0023Z" fill="#3B99FC"/>
<path d="M40.6463 36.7756L35.8589 33.5238L36.2769 32.9072L40.2403 35.5995L43.1049 26.627L43.8135 26.8537L40.6463 36.7756Z" fill="white"/>
<path d="M116.417 72.0167C121.201 67.2265 121.201 59.46 116.417 54.6699C111.633 49.8797 103.876 49.8797 99.0922 54.6699C94.3081 59.46 94.3081 67.2265 99.0922 72.0167C103.876 76.8069 111.633 76.8069 116.417 72.0167Z" fill="#3B99FC"/>
<path d="M104.8 68.5549L103.041 61.4331L103.956 61.2068L105.412 67.103L115.698 61.0806L116.174 61.8948L104.8 68.5549Z" fill="white"/>
</svg>
