<svg width="109" height="105" viewBox="0 0 109 105" fill="none" xmlns="http://www.w3.org/2000/svg">
<path d="M14.9088 30.4524C23.1427 30.4524 29.8176 23.7775 29.8176 15.5436C29.8176 7.30967 23.1427 0.634766 14.9088 0.634766C6.6749 0.634766 0 7.30967 0 15.5436C0 23.7775 6.6749 30.4524 14.9088 30.4524Z" fill="#E4E4E4"/>
<path d="M14.9088 27.9677C21.7704 27.9677 27.3328 22.4052 27.3328 15.5436C27.3328 8.68205 21.7704 3.11963 14.9088 3.11963C8.04722 3.11963 2.4848 8.68205 2.4848 15.5436C2.4848 22.4052 8.04722 27.9677 14.9088 27.9677Z" fill="#3B99FC"/>
<path d="M54.5 30.4524C62.7339 30.4524 69.4088 23.7775 69.4088 15.5436C69.4088 7.30967 62.7339 0.634766 54.5 0.634766C46.2661 0.634766 39.5912 7.30967 39.5912 15.5436C39.5912 23.7775 46.2661 30.4524 54.5 30.4524Z" fill="#E4E4E4"/>
<path d="M54.5 27.9677C61.3616 27.9677 66.924 22.4052 66.924 15.5436C66.924 8.68205 61.3616 3.11963 54.5 3.11963C47.6384 3.11963 42.076 8.68205 42.076 15.5436C42.076 22.4052 47.6384 27.9677 54.5 27.9677Z" fill="white"/>
<path d="M94.0912 30.4524C102.325 30.4524 109 23.7775 109 15.5436C109 7.30967 102.325 0.634766 94.0912 0.634766C85.8573 0.634766 79.1824 7.30967 79.1824 15.5436C79.1824 23.7775 85.8573 30.4524 94.0912 30.4524Z" fill="#E4E4E4"/>
<path d="M94.0912 27.9677C100.953 27.9677 106.515 22.4052 106.515 15.5436C106.515 8.68205 100.953 3.11963 94.0912 3.11963C87.2297 3.11963 81.6672 8.68205 81.6672 15.5436C81.6672 22.4052 87.2297 27.9677 94.0912 27.9677Z" fill="white"/>
<path d="M13.8531 20.0365C13.8309 20.0365 13.8086 20.0359 13.7864 20.0349C13.5899 20.0254 13.3978 19.9735 13.2232 19.8828C13.0486 19.7921 12.8958 19.6648 12.7751 19.5094L10.8693 17.0591C10.6474 16.7731 10.5479 16.4108 10.5928 16.0516C10.6377 15.6925 10.8232 15.3657 11.1087 15.1432L11.1773 15.0898C11.4633 14.8679 11.8256 14.7685 12.1848 14.8134C12.544 14.8583 12.8707 15.0438 13.0933 15.3292C13.2007 15.4673 13.3367 15.5806 13.492 15.6613C13.6472 15.742 13.8181 15.7881 13.9928 15.7967C14.1676 15.8052 14.3421 15.7758 14.5045 15.7106C14.6668 15.6455 14.8132 15.5459 14.9335 15.4189L18.8032 11.3341C18.9265 11.2039 19.0743 11.0993 19.238 11.0262C19.4018 10.9532 19.5783 10.9131 19.7575 10.9082C19.9368 10.9034 20.1152 10.9339 20.2827 10.998C20.4501 11.0621 20.6033 11.1586 20.7335 11.282L20.7966 11.3418C21.0595 11.5908 21.2126 11.9341 21.2224 12.2961C21.2322 12.658 21.0978 13.009 20.8487 13.2719L14.844 19.6101C14.7165 19.7448 14.5628 19.8521 14.3925 19.9254C14.2221 19.9987 14.0386 20.0365 13.8531 20.0365Z" fill="white"/>
<path d="M14.9088 67.4363C23.1427 67.4363 29.8176 60.7614 29.8176 52.5275C29.8176 44.2936 23.1427 37.6187 14.9088 37.6187C6.6749 37.6187 0 44.2936 0 52.5275C0 60.7614 6.6749 67.4363 14.9088 67.4363Z" fill="#E4E4E4"/>
<path d="M54.5 67.4363C62.7339 67.4363 69.4088 60.7614 69.4088 52.5275C69.4088 44.2936 62.7339 37.6187 54.5 37.6187C46.2661 37.6187 39.5912 44.2936 39.5912 52.5275C39.5912 60.7614 46.2661 67.4363 54.5 67.4363Z" fill="#E4E4E4"/>
<path d="M15.2479 64.9515C22.1095 64.9515 27.6719 59.3891 27.6719 52.5275C27.6719 45.6659 22.1095 40.1035 15.2479 40.1035C8.38633 40.1035 2.82391 45.6659 2.82391 52.5275C2.82391 59.3891 8.38633 64.9515 15.2479 64.9515Z" fill="white"/>
<path d="M94.0912 67.4363C102.325 67.4363 109 60.7614 109 52.5275C109 44.2936 102.325 37.6187 94.0912 37.6187C85.8573 37.6187 79.1824 44.2936 79.1824 52.5275C79.1824 60.7614 85.8573 67.4363 94.0912 67.4363Z" fill="#E4E4E4"/>
<path d="M94.0912 64.9515C100.953 64.9515 106.515 59.3891 106.515 52.5275C106.515 45.6659 100.953 40.1035 94.0912 40.1035C87.2297 40.1035 81.6672 45.6659 81.6672 52.5275C81.6672 59.3891 87.2297 64.9515 94.0912 64.9515Z" fill="white"/>
<path d="M54.6138 64.9515C61.4754 64.9515 67.0378 59.3891 67.0378 52.5275C67.0378 45.6659 61.4754 40.1035 54.6138 40.1035C47.7522 40.1035 42.1898 45.6659 42.1898 52.5275C42.1898 59.3891 47.7522 64.9515 54.6138 64.9515Z" fill="#3B99FC"/>
<path d="M53.5581 57.0204C53.5359 57.0204 53.5137 57.0198 53.4914 57.0188C53.2949 57.0093 53.1028 56.9574 52.9282 56.8667C52.7537 56.776 52.6008 56.6486 52.4801 56.4933L50.5743 54.043C50.3524 53.757 50.253 53.3947 50.2978 53.0355C50.3427 52.6763 50.5283 52.3496 50.8137 52.1271L50.8823 52.0737C51.1683 51.8518 51.5306 51.7524 51.8898 51.7973C52.249 51.8422 52.5757 52.0277 52.7983 52.3131C52.9057 52.4512 53.0417 52.5645 53.197 52.6452C53.3522 52.7259 53.5231 52.772 53.6978 52.7806C53.8726 52.7891 54.0471 52.7597 54.2095 52.6945C54.3718 52.6293 54.5182 52.5298 54.6385 52.4028L58.5082 48.318C58.6316 48.1878 58.7793 48.0832 58.943 48.0101C59.1068 47.937 59.2833 47.8969 59.4626 47.8921C59.6418 47.8873 59.8202 47.9178 59.9877 47.9819C60.1551 48.046 60.3083 48.1425 60.4385 48.2658L60.5017 48.3257C60.7645 48.5747 60.9177 48.918 60.9274 49.28C60.9372 49.6419 60.8028 49.9929 60.5538 50.2558L54.549 56.594C54.4215 56.7287 54.2679 56.836 54.0975 56.9093C53.9271 56.9826 53.7436 57.0204 53.5581 57.0204Z" fill="white"/>
<path d="M14.9088 104.424C23.1427 104.424 29.8176 97.7487 29.8176 89.5148C29.8176 81.2809 23.1427 74.606 14.9088 74.606C6.6749 74.606 0 81.2809 0 89.5148C0 97.7487 6.6749 104.424 14.9088 104.424Z" fill="#E4E4E4"/>
<path d="M54.5 104.424C62.7339 104.424 69.4088 97.7487 69.4088 89.5148C69.4088 81.2809 62.7339 74.606 54.5 74.606C46.2661 74.606 39.5912 81.2809 39.5912 89.5148C39.5912 97.7487 46.2661 104.424 54.5 104.424Z" fill="#E4E4E4"/>
<path d="M54.5 101.939C61.3616 101.939 66.924 96.3764 66.924 89.5148C66.924 82.6532 61.3616 77.0908 54.5 77.0908C47.6384 77.0908 42.076 82.6532 42.076 89.5148C42.076 96.3764 47.6384 101.939 54.5 101.939Z" fill="white"/>
<path d="M94.0912 104.424C102.325 104.424 109 97.7487 109 89.5148C109 81.2809 102.325 74.606 94.0912 74.606C85.8573 74.606 79.1824 81.2809 79.1824 89.5148C79.1824 97.7487 85.8573 104.424 94.0912 104.424Z" fill="#E4E4E4"/>
<path d="M94.0912 101.939C100.953 101.939 106.515 96.3764 106.515 89.5148C106.515 82.6532 100.953 77.0908 94.0912 77.0908C87.2297 77.0908 81.6672 82.6532 81.6672 89.5148C81.6672 96.3764 87.2297 101.939 94.0912 101.939Z" fill="white"/>
<path d="M14.9088 101.939C21.7704 101.939 27.3328 96.3764 27.3328 89.5148C27.3328 82.6532 21.7704 77.0908 14.9088 77.0908C8.04722 77.0908 2.4848 82.6532 2.4848 89.5148C2.4848 96.3764 8.04722 101.939 14.9088 101.939Z" fill="#3B99FC"/>
<path d="M13.8531 94.0077C13.8309 94.0077 13.8086 94.0071 13.7864 94.0061C13.5899 93.9966 13.3978 93.9447 13.2232 93.854C13.0486 93.7633 12.8958 93.6359 12.7751 93.4806L10.8693 91.0303C10.6474 90.7443 10.5479 90.382 10.5928 90.0228C10.6377 89.6636 10.8232 89.3369 11.1087 89.1144L11.1773 89.061C11.4633 88.8391 11.8256 88.7397 12.1848 88.7846C12.544 88.8295 12.8707 89.015 13.0933 89.3004C13.2007 89.4385 13.3367 89.5518 13.492 89.6325C13.6472 89.7132 13.8181 89.7593 13.9928 89.7679C14.1676 89.7764 14.3421 89.747 14.5045 89.6818C14.6668 89.6166 14.8132 89.5171 14.9335 89.3901L18.8032 85.3053C18.9265 85.1751 19.0743 85.0705 19.238 84.9974C19.4018 84.9243 19.5783 84.8842 19.7575 84.8794C19.9368 84.8746 20.1152 84.9051 20.2827 84.9692C20.4501 85.0333 20.6033 85.1298 20.7335 85.2531L20.7966 85.313C21.0595 85.562 21.2126 85.9053 21.2224 86.2673C21.2322 86.6292 21.0978 86.9802 20.8487 87.2431L14.844 93.5813C14.7165 93.716 14.5628 93.8233 14.3925 93.8966C14.2221 93.9699 14.0386 94.0077 13.8531 94.0077Z" fill="white"/>
<path d="M94.1678 101.939C101.029 101.939 106.592 96.3764 106.592 89.5148C106.592 82.6532 101.029 77.0908 94.1678 77.0908C87.3062 77.0908 81.7438 82.6532 81.7438 89.5148C81.7438 96.3764 87.3062 101.939 94.1678 101.939Z" fill="#3B99FC"/>
<path d="M93.1121 94.0077C93.0899 94.0077 93.0677 94.0071 93.0454 94.0061C92.8489 93.9966 92.6568 93.9447 92.4822 93.854C92.3077 93.7633 92.1548 93.6359 92.0341 93.4806L90.1283 91.0303C89.9064 90.7443 89.807 90.382 89.8519 90.0228C89.8967 89.6636 90.0823 89.3369 90.3677 89.1144L90.4363 89.061C90.7223 88.8391 91.0846 88.7397 91.4438 88.7846C91.803 88.8295 92.1297 89.015 92.3524 89.3004C92.4598 89.4385 92.5957 89.5518 92.751 89.6325C92.9062 89.7132 93.0771 89.7593 93.2518 89.7679C93.4266 89.7764 93.6011 89.747 93.7635 89.6818C93.9258 89.6166 94.0722 89.5171 94.1925 89.3901L98.0623 85.3053C98.1856 85.1751 98.3333 85.0705 98.4971 84.9974C98.6608 84.9243 98.8373 84.8842 99.0166 84.8794C99.1958 84.8746 99.3743 84.9051 99.5417 84.9692C99.7092 85.0333 99.8623 85.1298 99.9925 85.2531L100.056 85.313C100.319 85.562 100.472 85.9053 100.481 86.2673C100.491 86.6292 100.357 86.9802 100.108 87.2431L94.103 93.5813C93.9755 93.716 93.8219 93.8233 93.6515 93.8966C93.4811 93.9699 93.2976 94.0077 93.1121 94.0077Z" fill="white"/>
</svg>
