<svg width="118" height="97" viewBox="0 0 118 97" fill="none" xmlns="http://www.w3.org/2000/svg">
<g clip-path="url(#clip0)">
<path d="M75.9675 38.6255L67.0195 13.7446L67.2465 13.6631L65.6008 9.08683L65.3739 9.16844L62.6265 1.52926C62.5239 1.24394 62.3661 0.981618 62.162 0.757266C61.958 0.532914 61.7117 0.350928 61.4373 0.221697C61.1629 0.0924654 60.8658 0.0185196 60.5628 0.0040835C60.2598 -0.0103526 59.9569 0.0350031 59.6715 0.13756L43.4954 5.94925C43.2099 6.0518 42.9475 6.20954 42.723 6.41347C42.4985 6.6174 42.3165 6.86352 42.1872 7.13779C42.0579 7.41205 41.9839 7.70909 41.9694 8.01193C41.955 8.31478 42.0003 8.6175 42.1029 8.90282L44.0185 14.2293L43.66 14.3673L44.8828 17.5411L45.1698 17.4306L45.4237 18.1366L45.1183 18.2542L46.3411 21.428L46.575 21.3379L55.444 45.999C55.5461 46.2847 55.7037 46.5474 55.9076 46.772C56.1115 46.9967 56.3579 47.1789 56.6324 47.3082C56.907 47.4375 57.2043 47.5114 57.5075 47.5256C57.8107 47.5397 58.1137 47.4939 58.3991 47.3908L74.5751 41.5791C75.1511 41.3714 75.6213 40.9438 75.8823 40.39C76.1434 39.8363 76.174 39.2017 75.9675 38.6255Z" fill="#3F3D56"/>
<path d="M57.5483 46.5707C57.3205 46.5702 57.0984 46.4996 56.9121 46.3685C56.7259 46.2374 56.5846 46.0522 56.5073 45.838L43.0255 8.35026C42.9263 8.07415 42.9408 7.76994 43.0659 7.50454C43.191 7.23913 43.4165 7.03427 43.6927 6.935L47.1345 5.69845L47.1293 5.81881C47.1205 6.02774 47.1632 6.23564 47.2537 6.42418C47.3442 6.61273 47.4797 6.77614 47.6483 6.90001C47.8168 7.02389 48.0133 7.10443 48.2203 7.13454C48.4273 7.16465 48.6386 7.1434 48.8355 7.07268L56.4738 4.32843C56.6582 4.244 56.8201 4.11737 56.9464 3.9588C57.0727 3.80022 57.1599 3.61415 57.201 3.41563C57.2416 3.22043 57.2354 3.0184 57.183 2.82602C57.1306 2.63365 57.0334 2.45638 56.8994 2.30869L56.8188 2.2191L60.3739 0.941749C60.6502 0.842912 60.9544 0.857616 61.2199 0.982642C61.4853 1.10767 61.6904 1.33281 61.79 1.60869L74.6528 37.3751C74.9153 38.1078 74.8763 38.9147 74.5444 39.6187C74.2125 40.3227 73.6148 40.8664 72.8823 41.1304L57.9234 46.5049C57.8031 46.5483 57.6762 46.5706 57.5483 46.5707Z" fill="white"/>
<path d="M56.2304 19.9813C58.6466 19.9813 60.6053 18.0235 60.6053 15.6085C60.6053 13.1936 58.6466 11.2358 56.2304 11.2358C53.8143 11.2358 51.8556 13.1936 51.8556 15.6085C51.8556 18.0235 53.8143 19.9813 56.2304 19.9813Z" fill="#3B99FC"/>
<path d="M67.0712 21.9672L51.9209 27.4104C51.8736 27.4275 51.8233 27.4351 51.7731 27.4328C51.7228 27.4305 51.6735 27.4183 51.6279 27.3969C51.5824 27.3756 51.5415 27.3454 51.5076 27.3082C51.4737 27.271 51.4475 27.2275 51.4305 27.1801C51.4135 27.1328 51.406 27.0826 51.4084 27.0323C51.4108 26.9821 51.4231 26.9328 51.4446 26.8873C51.4662 26.8418 51.4964 26.8011 51.5337 26.7673C51.571 26.7335 51.6146 26.7074 51.662 26.6905L66.8123 21.2473C66.9078 21.2133 67.0128 21.2185 67.1044 21.2618C67.196 21.3051 67.2667 21.3829 67.301 21.4782C67.3353 21.5735 67.3303 21.6785 67.2872 21.7702C67.2442 21.8618 67.1665 21.9327 67.0712 21.9672Z" fill="#E6E6E6"/>
<path d="M62.5722 25.4187L57.5888 27.2091C57.5415 27.2263 57.4912 27.2339 57.441 27.2315C57.3907 27.2292 57.3414 27.217 57.2958 27.1956C57.2503 27.1742 57.2094 27.1441 57.1756 27.1069C57.1417 27.0697 57.1155 27.0262 57.0985 26.9788C57.0815 26.9315 57.074 26.8813 57.0764 26.8311C57.0788 26.7808 57.0911 26.7315 57.1126 26.6861C57.1341 26.6406 57.1643 26.5998 57.2016 26.566C57.2389 26.5323 57.2825 26.5062 57.3299 26.4892L62.3133 24.6988C62.4088 24.6645 62.514 24.6695 62.6058 24.7128C62.6977 24.756 62.7685 24.8339 62.8028 24.9294C62.8372 25.0249 62.8322 25.13 62.7889 25.2218C62.7456 25.3136 62.6677 25.3844 62.5722 25.4187Z" fill="#E6E6E6"/>
<path d="M63.7575 28.7146L58.7741 30.505C58.7268 30.522 58.6766 30.5295 58.6264 30.5272C58.5762 30.5248 58.527 30.5125 58.4815 30.4911C58.4361 30.4697 58.3953 30.4395 58.3615 30.4024C58.3277 30.3652 58.3015 30.3217 58.2845 30.2745C58.2675 30.2272 58.26 30.1771 58.2624 30.1269C58.2648 30.0767 58.277 30.0275 58.2985 29.9821C58.3199 29.9366 58.35 29.8958 58.3872 29.862C58.4244 29.8283 58.4679 29.8021 58.5152 29.7851L63.4986 27.9947C63.5941 27.9604 63.6993 27.9654 63.7911 28.0087C63.883 28.0519 63.9538 28.1298 63.9882 28.2253C64.0225 28.3208 64.0175 28.4259 63.9742 28.5177C63.931 28.6095 63.853 28.6803 63.7575 28.7146V28.7146Z" fill="#E6E6E6"/>
<path d="M64.3646 30.4024L59.3812 32.1928C59.3339 32.2099 59.2836 32.2176 59.2334 32.2153C59.1831 32.213 59.1337 32.2008 59.0882 32.1794C59.0426 32.158 59.0017 32.1279 58.9678 32.0907C58.9339 32.0534 58.9078 32.0099 58.8907 31.9626C58.8737 31.9152 58.8662 31.865 58.8686 31.8147C58.871 31.7645 58.8834 31.7152 58.9049 31.6697C58.9264 31.6242 58.9567 31.5834 58.994 31.5497C59.0313 31.5159 59.0749 31.4898 59.1223 31.4729L64.1057 29.6825C64.153 29.6654 64.2032 29.6578 64.2535 29.6601C64.3038 29.6624 64.3531 29.6746 64.3987 29.696C64.4442 29.7174 64.4851 29.7475 64.519 29.7847C64.5529 29.8219 64.579 29.8654 64.5961 29.9128C64.6131 29.9601 64.6206 30.0103 64.6182 30.0606C64.6158 30.1108 64.6034 30.1601 64.5819 30.2056C64.5604 30.2511 64.5302 30.2919 64.4929 30.3256C64.4556 30.3594 64.412 30.3855 64.3646 30.4024L64.3646 30.4024Z" fill="#E6E6E6"/>
<path d="M65.9513 26.0391L55.3783 29.8378C55.331 29.8549 55.2807 29.8625 55.2305 29.8602C55.1802 29.8579 55.1309 29.8457 55.0853 29.8243C55.0398 29.8029 54.9989 29.7728 54.965 29.7356C54.9311 29.6984 54.9049 29.6549 54.8879 29.6075C54.8709 29.5602 54.8634 29.51 54.8658 29.4597C54.8682 29.4095 54.8805 29.3602 54.902 29.3147C54.9235 29.2692 54.9538 29.2284 54.9911 29.1947C55.0284 29.1609 55.072 29.1348 55.1194 29.1179L65.6924 25.3192C65.7398 25.3021 65.79 25.2945 65.8403 25.2968C65.8906 25.2991 65.9399 25.3113 65.9854 25.3327C66.031 25.3541 66.0719 25.3842 66.1057 25.4214C66.1396 25.4586 66.1658 25.5022 66.1828 25.5495C66.1999 25.5968 66.2074 25.6471 66.2049 25.6973C66.2025 25.7475 66.1902 25.7968 66.1687 25.8423C66.1472 25.8878 66.1169 25.9286 66.0796 25.9623C66.0423 25.9961 65.9987 26.0222 65.9513 26.0391Z" fill="#E6E6E6"/>
<path d="M63.8216 34.5006L62.0121 35.1507C61.8498 35.2089 61.6709 35.2003 61.5149 35.1268C61.3589 35.0532 61.2384 34.9207 61.1801 34.7585C61.1217 34.5962 61.1302 34.4175 61.2037 34.2615C61.2772 34.1055 61.4096 33.985 61.5719 33.9266L63.3814 33.2765C63.5437 33.2183 63.7226 33.2269 63.8786 33.3004C64.0346 33.374 64.1551 33.5064 64.2134 33.6687C64.2718 33.8309 64.2633 34.0097 64.1898 34.1657C64.1163 34.3217 63.9839 34.4422 63.8216 34.5006Z" fill="#3B99FC"/>
<path d="M49.5627 5.81943C49.7016 5.81943 49.8143 5.70682 49.8143 5.56792C49.8143 5.42901 49.7016 5.31641 49.5627 5.31641C49.4237 5.31641 49.311 5.42901 49.311 5.56792C49.311 5.70682 49.4237 5.81943 49.5627 5.81943Z" fill="white"/>
<path d="M117.586 53.9464L112.897 61.8335L113.075 61.9274L111.487 64.9365L111.156 64.7616L110.113 66.5155L110.372 66.6645L108.671 69.6088L108.376 69.4387L93.0753 95.1762C92.674 95.8497 92.0218 96.3366 91.2618 96.53C90.5017 96.7234 89.6959 96.6076 89.0213 96.2078L60.5766 79.3146C59.9026 78.9136 59.4154 78.2617 59.2219 77.502C59.0284 76.7422 59.1444 75.9368 59.5444 75.2625L84.055 34.0328C84.4563 33.3592 85.1085 32.8723 85.8685 32.6789C86.6286 32.4855 87.4344 32.6014 88.109 33.0011L116.554 49.8944C117.227 50.2956 117.714 50.9475 117.908 51.7071C118.101 52.4667 117.986 53.272 117.586 53.9464Z" fill="#3F3D56"/>
<path d="M90.0351 94.6164L61.4902 77.6639C61.2825 77.5402 61.1324 77.3392 61.0728 77.1051C61.0131 76.8709 61.0489 76.6227 61.1721 76.4148L85.8453 34.9108C85.9691 34.7032 86.1701 34.5531 86.4044 34.4935C86.6387 34.4339 86.887 34.4696 87.095 34.5928L115.64 51.5454C115.848 51.6691 115.998 51.87 116.057 52.1042C116.117 52.3383 116.081 52.5866 115.958 52.7944L91.2848 94.2985C91.1611 94.5061 90.96 94.6561 90.7257 94.7157C90.4915 94.7753 90.2431 94.7396 90.0351 94.6164Z" fill="white"/>
<path d="M101.761 42.4132C101.9 42.4132 102.012 42.3006 102.012 42.1617C102.012 42.0228 101.9 41.9102 101.761 41.9102C101.622 41.9102 101.509 42.0228 101.509 42.1617C101.509 42.3006 101.622 42.4132 101.761 42.4132Z" fill="white"/>
<path d="M100.203 72.1442L76.3754 57.993C76.3007 57.949 76.2353 57.8907 76.1832 57.8214C76.1311 57.7521 76.0931 57.6732 76.0716 57.5893C76.05 57.5053 76.0453 57.4179 76.0576 57.3321C76.0699 57.2463 76.099 57.1637 76.1434 57.0892C76.1877 57.0147 76.2462 56.9496 76.3158 56.8978C76.3853 56.846 76.4643 56.8083 76.5484 56.7871C76.6325 56.7659 76.72 56.7615 76.8058 56.7741C76.8916 56.7868 76.9741 56.8162 77.0484 56.8608L100.876 71.012C100.951 71.056 101.016 71.1143 101.068 71.1835C101.121 71.2528 101.159 71.3317 101.18 71.4157C101.202 71.4997 101.206 71.587 101.194 71.6729C101.182 71.7587 101.153 71.8412 101.108 71.9157C101.064 71.9903 101.005 72.0553 100.936 72.1071C100.866 72.159 100.787 72.1966 100.703 72.2178C100.619 72.239 100.532 72.2435 100.446 72.2308C100.36 72.2182 100.278 72.1887 100.203 72.1442H100.203Z" fill="#E6E6E6"/>
<path d="M90.6889 69.9512L82.8512 65.2965C82.7768 65.2523 82.7119 65.1939 82.66 65.1247C82.6082 65.0554 82.5705 64.9766 82.5492 64.8928C82.5278 64.809 82.5232 64.7218 82.5356 64.6362C82.5479 64.5506 82.5771 64.4683 82.6213 64.3939C82.6655 64.3196 82.7239 64.2546 82.7932 64.2029C82.8625 64.1511 82.9413 64.1134 83.0252 64.0921C83.109 64.0708 83.1963 64.0662 83.2819 64.0786C83.3676 64.0909 83.4499 64.12 83.5243 64.1642L91.362 68.8189C91.4363 68.8631 91.5013 68.9215 91.5531 68.9908C91.6049 69.06 91.6425 69.1388 91.6639 69.2226C91.6852 69.3064 91.6898 69.3936 91.6775 69.4792C91.6651 69.5648 91.636 69.6471 91.5918 69.7214C91.5476 69.7958 91.4892 69.8607 91.4199 69.9125C91.3506 69.9643 91.2718 70.0019 91.1879 70.0232C91.1041 70.0446 91.0169 70.0492 90.9312 70.0368C90.8456 70.0245 90.7632 69.9954 90.6889 69.9512Z" fill="#E6E6E6"/>
<path d="M87.6075 75.1351L79.7698 70.4804C79.6196 70.3912 79.5111 70.246 79.468 70.0768C79.4249 69.9075 79.4508 69.7281 79.5401 69.578C79.6293 69.4279 79.7746 69.3193 79.9439 69.2762C80.1132 69.2331 80.2927 69.259 80.4429 69.3482L88.2806 74.0029C88.355 74.0471 88.4199 74.1055 88.4717 74.1747C88.5235 74.244 88.5612 74.3228 88.5825 74.4066C88.6039 74.4904 88.6085 74.5776 88.5961 74.6631C88.5838 74.7487 88.5546 74.8311 88.5104 74.9054C88.4663 74.9797 88.4078 75.0447 88.3385 75.0964C88.2692 75.1482 88.1904 75.1859 88.1066 75.2072C88.0227 75.2285 87.9355 75.2331 87.8499 75.2208C87.7642 75.2084 87.6819 75.1793 87.6075 75.1351Z" fill="#E6E6E6"/>
<path d="M86.029 77.7898L78.1914 73.1351C78.1168 73.091 78.0517 73.0327 77.9997 72.9634C77.9477 72.8941 77.9098 72.8153 77.8884 72.7314C77.8669 72.6475 77.8622 72.5602 77.8745 72.4744C77.8868 72.3887 77.916 72.3063 77.9602 72.2318C78.0045 72.1573 78.063 72.0923 78.1324 72.0405C78.2019 71.9887 78.2808 71.9511 78.3648 71.9298C78.4488 71.9086 78.5362 71.9041 78.622 71.9166C78.7077 71.9291 78.7901 71.9584 78.8645 72.0029L86.7021 76.6576C86.7768 76.7016 86.8422 76.7599 86.8943 76.8292C86.9465 76.8984 86.9844 76.9773 87.006 77.0613C87.0276 77.1453 87.0323 77.2327 87.02 77.3185C87.0077 77.4043 86.9785 77.4869 86.9342 77.5614C86.8899 77.6359 86.8313 77.701 86.7618 77.7528C86.6923 77.8047 86.6132 77.8423 86.5291 77.8635C86.445 77.8847 86.3575 77.8891 86.2717 77.8765C86.1859 77.8638 86.1034 77.8344 86.029 77.7898V77.7898Z" fill="#E6E6E6"/>
<path d="M93.5654 75.117L76.9366 65.2413C76.7871 65.1517 76.6793 65.0066 76.6366 64.8377C76.594 64.6688 76.62 64.4899 76.709 64.3402C76.798 64.1905 76.9428 64.0821 77.1116 64.0387C77.2804 63.9954 77.4595 64.0207 77.6097 64.1091L94.2385 73.9848C94.3132 74.0288 94.3786 74.0871 94.4307 74.1564C94.4829 74.2257 94.5208 74.3046 94.5424 74.3886C94.5639 74.4725 94.5687 74.5599 94.5564 74.6458C94.5441 74.7316 94.5149 74.8141 94.4706 74.8887C94.4263 74.9632 94.3677 75.0283 94.2982 75.0801C94.2287 75.1319 94.1496 75.1696 94.0655 75.1908C93.9814 75.212 93.8939 75.2164 93.8081 75.2037C93.7223 75.1911 93.6398 75.1616 93.5654 75.117Z" fill="#E6E6E6"/>
<path d="M90.3959 87.7386L87.5501 86.0485C87.2951 85.8967 87.1107 85.6498 87.0376 85.3622C86.9646 85.0745 87.0087 84.7697 87.1604 84.5146C87.312 84.2594 87.5588 84.0749 87.8465 84.0016C88.1342 83.9282 88.4392 83.972 88.6947 84.1233L91.5405 85.8134C91.7959 85.9651 91.9806 86.212 92.0539 86.4998C92.1272 86.7876 92.0831 87.0927 91.9313 87.348C91.7796 87.6033 91.5325 87.7879 91.2446 87.8611C90.9566 87.9344 90.6514 87.8903 90.3959 87.7386Z" fill="#3B99FC"/>
<path d="M95.7055 60.2973C98.927 60.2973 101.539 57.687 101.539 54.467C101.539 51.247 98.927 48.6367 95.7055 48.6367C92.4839 48.6367 89.8723 51.247 89.8723 54.467C89.8723 57.687 92.4839 60.2973 95.7055 60.2973Z" fill="#3B99FC"/>
<path d="M0.0687256 78.1591H79.0075V32.4808C79.0071 32.1386 78.8709 31.8105 78.6288 31.5685C78.3866 31.3265 78.0583 31.1903 77.7159 31.1899H1.36028C1.01786 31.1903 0.68958 31.3265 0.447452 31.5685C0.205323 31.8105 0.069121 32.1386 0.0687256 32.4808V78.1591Z" fill="#CACACA"/>
<path d="M76.5685 32.9751H2.50757V75.0001H76.5685V32.9751Z" fill="white"/>
<path d="M1.06192e-10 76.9229V82.5596C-2.55331e-06 82.7933 0.0460439 83.0247 0.13551 83.2406C0.224977 83.4564 0.356111 83.6526 0.521426 83.8178C0.686741 83.9831 0.883001 84.1142 1.099 84.2036C1.31499 84.293 1.54649 84.339 1.78029 84.339H30.916V95.4633H30.5289C30.4986 95.4633 30.4685 95.4693 30.4404 95.4809C30.4124 95.4925 30.3869 95.5095 30.3654 95.531C30.3439 95.5525 30.3269 95.5779 30.3153 95.606C30.3036 95.634 30.2977 95.6641 30.2977 95.6944V96.4682C30.2977 96.4985 30.3036 96.5286 30.3153 96.5566C30.3269 96.5847 30.3439 96.6102 30.3654 96.6316C30.3869 96.6531 30.4124 96.6701 30.4404 96.6817C30.4685 96.6934 30.4986 96.6993 30.5289 96.6993H48.616C48.6464 96.6993 48.6764 96.6934 48.7045 96.6817C48.7326 96.6701 48.7581 96.6531 48.7795 96.6316C48.801 96.6102 48.818 96.5847 48.8297 96.5566C48.8413 96.5286 48.8473 96.4985 48.8473 96.4682V95.6945C48.8473 95.6641 48.8413 95.634 48.8297 95.606C48.818 95.578 48.801 95.5525 48.7795 95.531C48.7581 95.5095 48.7326 95.4925 48.7045 95.4809C48.6764 95.4693 48.6464 95.4633 48.616 95.4633H48.2289V84.339H77.3646C77.5984 84.339 77.8299 84.293 78.0459 84.2036C78.2619 84.1142 78.4582 83.9831 78.6235 83.8179C78.7888 83.6526 78.92 83.4565 79.0094 83.2406C79.0989 83.0247 79.1449 82.7933 79.1449 82.5596V76.9229L1.06192e-10 76.9229Z" fill="#3F3D56"/>
<path d="M65.8519 47.0298H30.7795C30.5584 47.0298 30.3463 46.942 30.19 46.7857C30.0336 46.6295 29.9458 46.4175 29.9458 46.1965C29.9458 45.9755 30.0336 45.7636 30.19 45.6073C30.3463 45.4511 30.5584 45.3633 30.7795 45.3633H65.8519C66.073 45.3633 66.285 45.4511 66.4413 45.6073C66.5977 45.7636 66.6855 45.9755 66.6855 46.1965C66.6855 46.4175 66.5977 46.6295 66.4413 46.7857C66.285 46.942 66.073 47.0298 65.8519 47.0298Z" fill="#E6E6E6"/>
<path d="M54.0837 50.7911H42.5474C42.3263 50.7911 42.1143 50.7033 41.9579 50.547C41.8016 50.3907 41.7137 50.1788 41.7137 49.9578C41.7137 49.7368 41.8016 49.5248 41.9579 49.3686C42.1143 49.2123 42.3263 49.1245 42.5474 49.1245H54.0837C54.3049 49.1245 54.5169 49.2123 54.6733 49.3686C54.8296 49.5248 54.9174 49.7368 54.9174 49.9578C54.9174 50.1788 54.8296 50.3907 54.6733 50.547C54.5169 50.7033 54.3049 50.7911 54.0837 50.7911Z" fill="#E6E6E6"/>
<path d="M54.0837 58.4215H42.5474C42.3263 58.4215 42.1143 58.3337 41.9579 58.1774C41.8016 58.0211 41.7137 57.8092 41.7137 57.5882C41.7137 57.3672 41.8016 57.1552 41.9579 56.9989C42.1143 56.8427 42.3263 56.7549 42.5474 56.7549H54.0837C54.3049 56.7549 54.5169 56.8427 54.6733 56.9989C54.8296 57.1552 54.9174 57.3672 54.9174 57.5882C54.9174 57.8092 54.8296 58.0211 54.6733 58.1774C54.5169 58.3337 54.3049 58.4215 54.0837 58.4215Z" fill="#E6E6E6"/>
<path d="M54.0838 62.3291H42.5475C42.438 62.3291 42.3296 62.3075 42.2285 62.2657C42.1274 62.2238 42.0354 62.1624 41.958 62.085C41.8806 62.0077 41.8192 61.9158 41.7773 61.8147C41.7354 61.7136 41.7139 61.6053 41.7139 61.4958C41.7139 61.3864 41.7354 61.2781 41.7773 61.177C41.8192 61.0759 41.8806 60.984 41.958 60.9067C42.0354 60.8293 42.1274 60.7679 42.2285 60.726C42.3296 60.6842 42.438 60.6626 42.5475 60.6626H54.0838C54.1933 60.6626 54.3017 60.6842 54.4029 60.726C54.504 60.7679 54.5959 60.8293 54.6733 60.9067C54.7507 60.984 54.8121 61.0759 54.854 61.177C54.8959 61.2781 54.9175 61.3864 54.9175 61.4958C54.9175 61.6053 54.8959 61.7136 54.854 61.8147C54.8121 61.9158 54.7507 62.0077 54.6733 62.085C54.5959 62.1624 54.504 62.2238 54.4029 62.2657C54.3017 62.3075 54.1933 62.3291 54.0838 62.3291Z" fill="#E6E6E6"/>
<path d="M60.5537 54.5527H36.0775C35.8565 54.5527 35.6444 54.4649 35.4881 54.3087C35.3317 54.1524 35.2439 53.9405 35.2439 53.7195C35.2439 53.4985 35.3317 53.2865 35.4881 53.1303C35.6444 52.974 35.8565 52.8862 36.0775 52.8862H60.5537C60.7748 52.8862 60.9869 52.974 61.1432 53.1303C61.2995 53.2865 61.3874 53.4985 61.3874 53.7195C61.3874 53.9405 61.2995 54.1524 61.1432 54.3087C60.9869 54.4649 60.7748 54.5527 60.5537 54.5527Z" fill="#E6E6E6"/>
<path d="M65.2679 70.3304H61.0791C60.7031 70.3304 60.3426 70.1811 60.0767 69.9154C59.8109 69.6497 59.6615 69.2893 59.6615 68.9135C59.6615 68.5377 59.8109 68.1773 60.0767 67.9116C60.3426 67.6459 60.7031 67.4966 61.0791 67.4966H65.2679C65.6439 67.4966 66.0045 67.6459 66.2703 67.9116C66.5362 68.1773 66.6856 68.5377 66.6856 68.9135C66.6856 69.2893 66.5362 69.6497 66.2703 69.9154C66.0045 70.1811 65.6439 70.3304 65.2679 70.3304Z" fill="#3B99FC"/>
<path d="M19.7508 60.0464C23.7777 60.0464 27.0422 56.7835 27.0422 52.7585C27.0422 48.7336 23.7777 45.4707 19.7508 45.4707C15.7238 45.4707 12.4594 48.7336 12.4594 52.7585C12.4594 56.7835 15.7238 60.0464 19.7508 60.0464Z" fill="#3B99FC"/>
</g>
<defs>
<clipPath id="clip0">
<rect width="118" height="97" fill="white"/>
</clipPath>
</defs>
</svg>
