<svg width="132" height="104" viewBox="0 0 132 104" fill="none" xmlns="http://www.w3.org/2000/svg">
<path d="M68.7568 48.4863H44.8649V69.5674H68.7568V48.4863Z" fill="#3B99FC"/>
<path d="M56.0997 59.1223C61.8234 57.8654 67.238 55.4767 72.0251 52.0968C76.8122 48.7168 80.8752 44.4138 83.9751 39.4407C85.735 36.6133 87.1534 33.5872 88.2006 30.4257C88.2797 30.164 88.2541 29.8817 88.1292 29.6384C88.0043 29.3952 87.7898 29.2099 87.5309 29.1218C87.2721 29.0336 86.9891 29.0494 86.7416 29.1658C86.4942 29.2822 86.3016 29.4902 86.2046 29.7458C84.4077 35.0299 81.5715 39.9009 77.8632 44.0721C74.1549 48.2432 69.6494 51.6301 64.612 54.0332C61.7736 55.3894 58.7837 56.4026 55.7055 57.0514C54.3777 57.3314 54.7691 59.403 56.0997 59.1223Z" fill="#3F3D56"/>
<path d="M76.6395 34.463C80.4396 32.3229 84.2396 30.1828 88.0397 28.0427C88.2158 27.9441 88.7086 27.5708 88.8927 27.6154C88.7451 27.5796 88.8791 27.6889 88.8834 27.8224C88.8893 28.0021 88.912 28.1846 88.9187 28.3655C88.96 29.4753 88.9802 30.5862 89.0109 31.6963L89.1876 38.0804C89.2248 39.4242 91.3287 39.584 91.2911 38.2244L91.0837 30.73C91.0362 29.0125 91.4658 25.203 88.683 25.5323C87.6789 25.6511 86.7504 26.3546 85.8939 26.837L82.4242 28.791L75.7328 32.5594C74.5545 33.223 75.4561 35.1294 76.6395 34.4629V34.463Z" fill="#3F3D56"/>
<path d="M92.6486 19.6757C98.0819 19.6757 102.486 15.2711 102.486 9.83784C102.486 4.40455 98.0819 0 92.6486 0C87.2153 0 82.8108 4.40455 82.8108 9.83784C82.8108 15.2711 87.2153 19.6757 92.6486 19.6757Z" fill="#3B99FC"/>
<path d="M54.7027 15.4595H30.8108V36.5406H54.7027V15.4595Z" fill="#3B99FC"/>
<path d="M42.973 25.9258C37.3074 27.4128 31.9962 30.0172 27.3515 33.586C22.7068 37.1549 18.8222 41.6161 15.9262 46.7076C14.2822 49.6015 12.9875 52.6804 12.0693 55.8796C12.0057 56.1455 12.048 56.4258 12.1871 56.6612C12.3262 56.8967 12.5514 57.0689 12.815 57.1416C13.0786 57.2143 13.3602 57.1817 13.6003 57.0508C13.8404 56.9199 14.0203 56.7009 14.1021 56.44C15.693 51.0863 18.3395 46.1052 21.8856 41.7903C25.4316 37.4753 29.8056 33.9139 34.7496 31.3158C37.5337 29.8516 40.4824 28.7246 43.5334 27.9586C44.848 27.6268 44.291 25.5931 42.973 25.9258L42.973 25.9258Z" fill="#3F3D56"/>
<path d="M23.4259 51.3911L12.4097 58.1828C12.2209 58.2992 12.0353 58.4262 11.8388 58.5297C11.6438 58.6324 11.4432 58.6292 11.5693 58.753C11.3992 58.586 11.4426 57.9668 11.4299 57.7778L11.2153 54.5918L10.7862 48.2197C10.6955 46.8732 8.5867 46.8631 8.67805 48.2197L9.18184 55.7C9.29654 57.4032 8.97923 60.9283 11.5868 60.7858C12.7478 60.7224 13.854 59.7687 14.8054 59.1821L17.9529 57.2416L24.4899 53.2114C25.6427 52.5007 24.5851 50.6764 23.4259 51.3911V51.3911Z" fill="#3F3D56"/>
<path d="M10.4324 95.0966C15.8657 95.0966 20.2703 90.692 20.2703 85.2587C20.2703 79.8254 15.8657 75.4209 10.4324 75.4209C4.99915 75.4209 0.594604 79.8254 0.594604 85.2587C0.594604 90.692 4.99915 95.0966 10.4324 95.0966Z" fill="#3B99FC"/>
<path d="M132 69.5677V45.6758L110.919 45.6758V69.5677H132Z" fill="#3B99FC"/>
<path d="M122.312 56.8448C120.897 62.2477 118.416 67.3129 115.013 71.7417C111.61 76.1704 107.355 79.8732 102.499 82.6317C99.7645 84.1868 96.8545 85.4103 93.8304 86.2761C93.5695 86.3579 93.3505 86.5378 93.2196 86.7779C93.0887 87.018 93.0562 87.2995 93.1289 87.5632C93.2016 87.8268 93.3738 88.0519 93.6092 88.191C93.8446 88.3301 94.1248 88.3724 94.3908 88.3089C100.007 86.6459 105.234 83.8769 109.765 80.1648C114.296 76.4526 118.039 71.8721 120.775 66.6926C122.328 63.749 123.526 60.6314 124.345 57.4052C124.677 56.0894 122.644 55.528 122.312 56.8448Z" fill="#3F3D56"/>
<path d="M97.059 75.8882L93.0287 82.4253L91.0883 85.5728C90.5002 86.5267 89.5481 87.6286 89.4846 88.7913C89.3421 91.3982 92.8666 91.0816 94.5704 91.1963L102.051 91.7001C103.405 91.7913 103.399 89.6828 102.051 89.592L95.6786 89.1629L92.6311 88.9576C92.3978 88.9419 91.711 89.003 91.5174 88.8089C91.6556 88.9475 91.5896 88.803 91.6836 88.6483C91.8202 88.4233 91.9492 88.1929 92.0876 87.9684L98.8793 76.9522C99.5932 75.7942 97.7705 74.7342 97.059 75.8882Z" fill="#3F3D56"/>
<path d="M59.6216 94.1621C59.6216 99.5953 64.0261 104 69.4594 104C74.8927 104 79.2972 99.5953 79.2972 94.1621C79.2972 88.7288 74.8927 84.3242 69.4594 84.3242C64.0261 84.3242 59.6216 88.7288 59.6216 94.1621Z" fill="#3B99FC"/>
</svg>
