<svg xmlns="http://www.w3.org/2000/svg" width="2568" height="643" viewBox="0 0 2568 643" fill="none"><path d="M931.347 341H1013.8C1025.38 341 1034.77 350.459 1034.77 362.128C1034.77 373.797 1025.38 383.257 1013.8 383.257H914.348C912.796 383.257 911.294 383.816 910.114 384.833L880.086 410.716C875.489 414.678 878.271 422.263 884.32 422.263H1008.82C1008.87 422.263 1008.91 422.222 1008.91 422.17C1008.91 422.115 1008.96 422.072 1009.01 422.077C1010.58 422.2 1012.16 422.263 1013.76 422.263C1046.79 422.263 1073.56 395.34 1073.56 362.128C1073.56 330.59 1049.42 304.722 1018.7 302.196C1018.65 302.192 1018.61 302.148 1018.61 302.095C1018.61 302.039 1018.57 301.993 1018.51 301.993H929.681C918.099 301.993 908.71 292.534 908.71 280.865C908.71 269.196 918.099 259.736 929.681 259.736H1029C1030.63 259.736 1032.21 259.117 1033.41 258.001L1061.29 232.117C1065.66 228.068 1062.81 220.73 1056.88 220.73H931.347C931.341 220.73 931.337 220.735 931.337 220.741C931.337 220.747 931.332 220.751 931.326 220.751C930.792 220.737 930.257 220.73 929.72 220.73C896.695 220.73 869.922 247.653 869.922 280.865C869.922 314.077 896.695 341 929.72 341C930.257 341 930.792 340.993 931.326 340.979C931.332 340.979 931.337 340.983 931.337 340.989C931.337 340.995 931.341 341 931.347 341Z" fill="white"></path><path d="M1411.59 220.73C1407.98 220.73 1405.06 223.668 1405.06 227.292V415.702C1405.06 419.326 1407.98 422.263 1411.59 422.263H1562.57C1564.37 422.263 1566.1 421.513 1567.33 420.19L1586.23 399.924C1590.14 395.734 1587.18 388.875 1581.47 388.875H1449.64C1446.04 388.875 1443.12 385.937 1443.12 382.313V227.292C1443.12 223.668 1440.19 220.73 1436.59 220.73H1411.59Z" fill="white"></path><path fill-rule="evenodd" clip-rule="evenodd" d="M1169.77 220.73C1169.76 220.73 1169.75 220.738 1169.75 220.748C1169.75 220.757 1169.74 220.765 1169.73 220.765C1150.43 221.601 1134.94 237.13 1134.1 256.469C1134.1 256.478 1134.09 256.486 1134.09 256.486C1134.08 256.486 1134.08 256.488 1134.07 256.492C1134.07 256.495 1134.07 256.499 1134.07 256.504V383.24C1134.07 383.249 1134.08 383.257 1134.08 383.257C1134.09 383.257 1134.1 383.265 1134.1 383.275C1134.08 383.808 1134.07 384.344 1134.07 384.882C1134.07 404.977 1149.89 421.368 1169.73 422.228C1169.74 422.228 1169.75 422.236 1169.75 422.246L1169.75 422.254L1169.75 422.259C1169.76 422.262 1169.76 422.263 1169.77 422.263H1306.76C1306.77 422.263 1306.78 422.255 1306.78 422.246L1306.79 422.236L1306.79 422.23L1306.8 422.228C1326.64 421.368 1342.46 404.977 1342.46 384.882C1342.46 384.344 1342.45 383.808 1342.43 383.275C1342.43 383.265 1342.44 383.257 1342.45 383.257C1342.45 383.257 1342.46 383.249 1342.46 383.24V256.504C1342.46 256.494 1342.45 256.486 1342.44 256.486C1342.43 256.486 1342.43 256.478 1342.43 256.469C1341.59 237.13 1326.1 221.601 1306.8 220.765C1306.79 220.765 1306.78 220.757 1306.78 220.748C1306.78 220.738 1306.77 220.73 1306.76 220.73H1169.77ZM1195.3 256.486L1195.29 256.49L1195.29 256.497C1195.29 256.503 1195.29 256.508 1195.28 256.508C1183.22 257.034 1173.53 266.802 1173.01 278.967C1173.01 278.973 1173.01 278.978 1173 278.978C1173 278.978 1172.99 278.983 1172.99 278.989V358.71C1172.99 358.716 1173 358.721 1173 358.721C1173.01 358.721 1173.01 358.726 1173.01 358.732C1173 359.067 1172.99 359.404 1172.99 359.743C1172.99 372.383 1182.88 382.694 1195.28 383.235C1195.29 383.235 1195.29 383.24 1195.29 383.246L1195.29 383.252L1195.3 383.255L1195.3 383.257H1281.23L1281.23 383.256L1281.24 383.251L1281.24 383.246C1281.24 383.24 1281.24 383.235 1281.25 383.235C1293.65 382.694 1303.54 372.383 1303.54 359.743C1303.54 359.404 1303.53 359.067 1303.52 358.732L1303.52 358.729L1303.52 358.726L1303.53 358.721C1303.53 358.721 1303.54 358.716 1303.54 358.71V278.989C1303.54 278.983 1303.53 278.978 1303.53 278.978C1303.52 278.978 1303.52 278.973 1303.52 278.967C1303 266.802 1293.31 257.034 1281.25 256.508C1281.24 256.508 1281.24 256.503 1281.24 256.497L1281.24 256.492L1281.23 256.488L1281.23 256.486H1195.3Z" fill="white"></path><path fill-rule="evenodd" clip-rule="evenodd" d="M1805.78 415.702C1805.78 419.326 1808.68 422.263 1812.25 422.263H1837.86C1841.43 422.263 1844.33 419.326 1844.33 415.702V259.753C1844.33 259.744 1844.32 259.736 1844.31 259.736L1844.31 259.734L1844.3 259.732C1844.3 259.729 1844.3 259.724 1844.3 259.719C1844.32 259.186 1844.33 258.65 1844.33 258.111C1844.33 238.016 1828.66 221.625 1809.01 220.765C1809 220.765 1808.99 220.757 1808.99 220.748C1808.99 220.738 1808.98 220.73 1808.97 220.73H1677.45C1677.44 220.73 1677.43 220.738 1677.43 220.747C1677.43 220.757 1677.42 220.764 1677.41 220.764C1676.89 220.741 1676.36 220.73 1675.83 220.73C1655.42 220.73 1638.88 237.466 1638.88 258.111C1638.88 258.65 1638.89 259.186 1638.91 259.719C1638.91 259.728 1638.91 259.736 1638.9 259.736C1638.89 259.736 1638.88 259.744 1638.88 259.753V415.702C1638.88 419.326 1641.78 422.263 1645.35 422.263H1670.96C1674.53 422.263 1677.43 419.326 1677.43 415.702V350.812C1677.43 347.188 1680.33 344.25 1683.91 344.25H1799.3C1802.88 344.25 1805.78 347.188 1805.78 350.812V415.702ZM1677.43 308.434V275.989C1677.43 263.423 1687.5 253.235 1699.92 253.235H1783.29C1795.71 253.235 1805.78 263.423 1805.78 275.989V308.434C1805.78 312.058 1802.88 314.996 1799.3 314.996H1683.91C1680.33 314.996 1677.43 312.058 1677.43 308.434Z" fill="white"></path><path fill-rule="evenodd" clip-rule="evenodd" d="M2346.29 422.263C2342.68 422.263 2339.75 419.326 2339.75 415.702V350.812C2339.75 347.188 2336.83 344.25 2333.22 344.25H2216.54C2212.93 344.25 2210.01 347.188 2210.01 350.812V415.702C2210.01 419.326 2207.08 422.263 2203.47 422.263H2177.62C2174.01 422.263 2171.08 419.326 2171.08 415.702V259.753L2171.08 259.749L2171.09 259.743C2171.09 259.739 2171.1 259.736 2171.1 259.736C2171.11 259.736 2171.12 259.728 2171.12 259.719C2171.1 259.186 2171.08 258.65 2171.08 258.111C2171.08 237.466 2187.78 220.73 2208.39 220.73C2208.92 220.73 2209.46 220.741 2209.99 220.764C2210 220.764 2210.01 220.757 2210.01 220.747C2210.01 220.738 2210.02 220.73 2210.02 220.73L2342.98 220.73C2342.99 220.73 2343 220.738 2343 220.748C2343 220.757 2343 220.765 2343.01 220.765C2362.85 221.625 2378.68 238.016 2378.68 258.111C2378.68 258.65 2378.66 259.186 2378.64 259.719C2378.64 259.728 2378.65 259.736 2378.66 259.736C2378.66 259.736 2378.67 259.738 2378.67 259.742C2378.67 259.745 2378.68 259.749 2378.68 259.753V415.702C2378.68 419.326 2375.75 422.263 2372.14 422.263H2346.29ZM2210.01 275.989V308.434C2210.01 312.058 2212.93 314.996 2216.54 314.996H2333.22C2336.83 314.996 2339.75 312.058 2339.75 308.434V275.989C2339.75 263.423 2329.59 253.235 2317.05 253.235H2232.71C2220.17 253.235 2210.01 263.423 2210.01 275.989Z" fill="white"></path><path d="M1940.71 220.73C1942.61 220.73 1944.41 221.572 1945.64 223.034L2060.48 359.932C2064.38 364.574 2071.88 361.775 2071.88 355.675V227.292C2071.88 223.668 2074.77 220.73 2078.35 220.73H2103.96C2107.53 220.73 2110.43 223.668 2110.43 227.292V415.702C2110.43 419.326 2107.53 422.263 2103.96 422.263H2072.12C2071.98 422.263 2071.88 422.154 2071.88 422.018C2071.88 421.959 2071.85 421.902 2071.82 421.857L1955.05 285.914C1951.11 281.347 1943.7 284.167 1943.7 290.229V415.702C1943.7 419.326 1940.8 422.263 1937.23 422.263H1911.45C1907.88 422.263 1904.98 419.326 1904.98 415.702V227.292C1904.98 223.668 1907.88 220.73 1911.45 220.73H1940.71Z" fill="white"></path><path d="M274.625 429.202C277.818 426.012 282.147 424.22 286.661 424.22H703.121C710.707 424.22 714.505 433.394 709.138 438.756L626.847 520.982C623.654 524.173 619.325 525.965 614.811 525.965H198.351C190.765 525.965 186.967 516.791 192.333 511.428L274.625 429.202Z" fill="url(#paint0_linear)"></path><path d="M274.625 122.011C277.818 118.82 282.147 117.028 286.661 117.028H703.121C710.707 117.028 714.505 126.202 709.138 131.565L626.847 213.791C623.654 216.981 619.325 218.773 614.811 218.773H198.351C190.765 218.773 186.967 209.599 192.333 204.237L274.625 122.011Z" fill="url(#paint1_linear)"></path><path d="M626.847 274.628C623.654 271.438 619.325 269.646 614.811 269.646H198.351C190.765 269.646 186.967 278.82 192.333 284.182L274.625 366.408C277.818 369.599 282.147 371.391 286.661 371.391H703.121C710.707 371.391 714.505 362.217 709.138 356.854L626.847 274.628Z" fill="url(#paint2_linear)"></path><defs><linearGradient id="paint0_linear" x1="542.609" y1="4.85473" x2="254.383" y2="556.923" gradientUnits="userSpaceOnUse"><stop stop-color="#00FFA3"></stop><stop offset="1" stop-color="#DC1FFF"></stop></linearGradient><linearGradient id="paint1_linear" x1="542.609" y1="4.85473" x2="254.383" y2="556.923" gradientUnits="userSpaceOnUse"><stop stop-color="#00FFA3"></stop><stop offset="1" stop-color="#DC1FFF"></stop></linearGradient><linearGradient id="paint2_linear" x1="542.609" y1="4.85473" x2="254.383" y2="556.923" gradientUnits="userSpaceOnUse"><stop stop-color="#00FFA3"></stop><stop offset="1" stop-color="#DC1FFF"></stop></linearGradient></defs></svg>